<?xml version="1.0" encoding="UTF-8" standalone="no"?>
<!DOCTYPE svg PUBLIC "-//W3C//DTD SVG 1.1//EN"
 "http://www.w3.org/Graphics/SVG/1.1/DTD/svg11.dtd">
<!-- Generated by graphviz version 2.43.0 (0)
 -->
<!-- Title: load_balance Pages: 1 -->
<svg width="3234pt" height="434pt"
 viewBox="0.00 0.00 3234.00 434.00" xmlns="http://www.w3.org/2000/svg" xmlns:xlink="http://www.w3.org/1999/xlink">
<g id="graph0" class="graph" transform="scale(1 1) rotate(0) translate(4 430)">
<title>load_balance</title>
<polygon fill="white" stroke="transparent" points="-4,4 -4,-430 3230,-430 3230,4 -4,4"/>
<g id="clust1" class="cluster">
<title>cluster_0</title>
<polygon fill="none" stroke="blue" points="8,-8 8,-382 3218,-382 3218,-8 8,-8"/>
<text text-anchor="middle" x="1613" y="-366.8" font-family="Times,serif" font-size="14.00">执行 Load Balance</text>
</g>
<g id="clust3" class="cluster">
<title>cluster_1</title>
<polygon fill="none" stroke="red" points="16,-160 16,-307 461,-307 461,-160 16,-160"/>
<text text-anchor="middle" x="238.5" y="-291.8" font-family="Times,serif" font-size="14.00">寻找 dst CPU</text>
</g>
<g id="clust5" class="cluster">
<title>cluster_2</title>
<polygon fill="none" stroke="red" points="469,-88 469,-307 1995,-307 1995,-88 469,-88"/>
<text text-anchor="middle" x="1232" y="-291.8" font-family="Times,serif" font-size="14.00">寻找 src CPU</text>
</g>
<g id="clust8" class="cluster">
<title>cluster_3</title>
<polygon fill="none" stroke="red" points="2003,-160 2003,-307 2824,-307 2824,-160 2003,-160"/>
<text text-anchor="middle" x="2413.5" y="-291.8" font-family="Times,serif" font-size="14.00">Normal Migration</text>
</g>
<g id="clust11" class="cluster">
<title>cluster_4</title>
<polygon fill="none" stroke="red" points="2832,-16 2832,-307 3210,-307 3210,-16 2832,-16"/>
<text text-anchor="middle" x="3021" y="-291.8" font-family="Times,serif" font-size="14.00">Active Migration</text>
</g>
<!-- rebalance_domains -->
<g id="node1" class="node">
<title>rebalance_domains</title>
<ellipse fill="palegreen" stroke="black" cx="1978" cy="-408" rx="99.38" ry="18"/>
<text text-anchor="middle" x="1978" y="-404.3" font-family="Times,serif" font-size="14.00">rebalance_domains</text>
</g>
<!-- load_balance -->
<g id="node2" class="node">
<title>load_balance</title>
<ellipse fill="palegreen" stroke="black" cx="2080" cy="-333" rx="70.39" ry="18"/>
<text text-anchor="middle" x="2080" y="-329.3" font-family="Times,serif" font-size="14.00">load_balance</text>
</g>
<!-- rebalance_domains&#45;&gt;load_balance -->
<g id="edge1" class="edge">
<title>rebalance_domains&#45;&gt;load_balance</title>
<path fill="none" stroke="black" d="M2001.15,-390.44C2015.33,-380.28 2033.66,-367.17 2049.08,-356.13"/>
<polygon fill="black" stroke="black" points="2051.2,-358.91 2057.3,-350.25 2047.13,-353.22 2051.2,-358.91"/>
</g>
<!-- should_we_balance -->
<g id="node4" class="node">
<title>should_we_balance</title>
<ellipse fill="none" stroke="black" cx="354" cy="-258" rx="98.58" ry="18"/>
<text text-anchor="middle" x="354" y="-254.3" font-family="Times,serif" font-size="14.00">should_we_balance</text>
</g>
<!-- load_balance&#45;&gt;should_we_balance -->
<g id="edge3" class="edge">
<title>load_balance:s&#45;&gt;should_we_balance</title>
<path fill="none" stroke="black" d="M2080,-315C2080,-303.78 475.98,-309.3 465,-307 439.7,-301.7 413.05,-290.39 392.21,-280.08"/>
<polygon fill="black" stroke="black" points="393.57,-276.85 383.07,-275.44 390.4,-283.09 393.57,-276.85"/>
</g>
<!-- find_busiest_group -->
<g id="node5" class="node">
<title>find_busiest_group</title>
<ellipse fill="lightyellow" stroke="black" cx="1438" cy="-258" rx="98.28" ry="18"/>
<text text-anchor="middle" x="1438" y="-254.3" font-family="Times,serif" font-size="14.00">find_busiest_group</text>
</g>
<!-- load_balance&#45;&gt;find_busiest_group -->
<g id="edge4" class="edge">
<title>load_balance:s&#45;&gt;find_busiest_group</title>
<path fill="none" stroke="black" d="M2080,-315C2080,-313.31 1714.73,-282.31 1535.23,-267.18"/>
<polygon fill="black" stroke="black" points="1535.51,-263.69 1525.25,-266.33 1534.92,-270.66 1535.51,-263.69"/>
</g>
<!-- find_busiest_queue -->
<g id="node6" class="node">
<title>find_busiest_queue</title>
<ellipse fill="lightyellow" stroke="black" cx="844" cy="-258" rx="98.58" ry="18"/>
<text text-anchor="middle" x="844" y="-254.3" font-family="Times,serif" font-size="14.00">find_busiest_queue</text>
</g>
<!-- load_balance&#45;&gt;find_busiest_queue -->
<g id="edge5" class="edge">
<title>load_balance:s&#45;&gt;find_busiest_queue</title>
<path fill="none" stroke="black" d="M2080,-315C2080,-304.6 1341.39,-307.57 1331,-307 1191.51,-299.4 1030.29,-281.76 932.81,-270.11"/>
<polygon fill="black" stroke="black" points="933.05,-266.62 922.7,-268.9 932.22,-273.57 933.05,-266.62"/>
</g>
<!-- detach_tasks -->
<g id="node7" class="node">
<title>detach_tasks</title>
<ellipse fill="none" stroke="black" cx="2380" cy="-258" rx="70.69" ry="18"/>
<text text-anchor="middle" x="2380" y="-254.3" font-family="Times,serif" font-size="14.00">detach_tasks</text>
</g>
<!-- load_balance&#45;&gt;detach_tasks -->
<g id="edge6" class="edge">
<title>load_balance:s&#45;&gt;detach_tasks</title>
<path fill="none" stroke="black" d="M2080,-315C2080,-306.29 2149.4,-308.37 2158,-307 2213.94,-298.11 2276.99,-284.09 2321.57,-273.49"/>
<polygon fill="black" stroke="black" points="2322.44,-276.88 2331.35,-271.14 2320.81,-270.07 2322.44,-276.88"/>
</g>
<!-- attach_tasks -->
<g id="node8" class="node">
<title>attach_tasks</title>
<ellipse fill="none" stroke="black" cx="2080" cy="-258" rx="68.79" ry="18"/>
<text text-anchor="middle" x="2080" y="-254.3" font-family="Times,serif" font-size="14.00">attach_tasks</text>
</g>
<!-- load_balance&#45;&gt;attach_tasks -->
<g id="edge7" class="edge">
<title>load_balance:s&#45;&gt;attach_tasks</title>
<path fill="none" stroke="black" d="M2080,-315C2080,-305.64 2080,-295.39 2080,-286.25"/>
<polygon fill="black" stroke="black" points="2083.5,-286.16 2080,-276.16 2076.5,-286.16 2083.5,-286.16"/>
</g>
<!-- need_active_balance -->
<g id="node9" class="node">
<title>need_active_balance</title>
<ellipse fill="none" stroke="black" cx="2945" cy="-258" rx="105.08" ry="18"/>
<text text-anchor="middle" x="2945" y="-254.3" font-family="Times,serif" font-size="14.00">need_active_balance</text>
</g>
<!-- load_balance&#45;&gt;need_active_balance -->
<g id="edge8" class="edge">
<title>load_balance:s&#45;&gt;need_active_balance</title>
<path fill="none" stroke="black" d="M2080,-315C2080,-304.61 2817.82,-309.06 2828,-307 2854.74,-301.58 2883.08,-290.11 2905.17,-279.75"/>
<polygon fill="black" stroke="black" points="2906.74,-282.88 2914.24,-275.39 2903.71,-276.57 2906.74,-282.88"/>
</g>
<!-- stop_one_cpu_nowait -->
<g id="node10" class="node">
<title>stop_one_cpu_nowait</title>
<ellipse fill="none" stroke="black" cx="3021" cy="-186" rx="108.58" ry="18"/>
<text text-anchor="middle" x="3021" y="-182.3" font-family="Times,serif" font-size="14.00">stop_one_cpu_nowait</text>
</g>
<!-- load_balance&#45;&gt;stop_one_cpu_nowait -->
<g id="edge9" class="edge">
<title>load_balance:s&#45;&gt;stop_one_cpu_nowait</title>
<path fill="none" stroke="black" d="M2080,-315C2080,-301.4 3049.42,-316.65 3059,-307 3084.27,-281.52 3061.48,-239.35 3041.89,-212.38"/>
<polygon fill="black" stroke="black" points="3044.53,-210.07 3035.71,-204.21 3038.95,-214.29 3044.53,-210.07"/>
</g>
<!-- newidle_balance -->
<g id="node3" class="node">
<title>newidle_balance</title>
<ellipse fill="palegreen" stroke="black" cx="2183" cy="-408" rx="87.18" ry="18"/>
<text text-anchor="middle" x="2183" y="-404.3" font-family="Times,serif" font-size="14.00">newidle_balance</text>
</g>
<!-- newidle_balance&#45;&gt;load_balance -->
<g id="edge2" class="edge">
<title>newidle_balance&#45;&gt;load_balance</title>
<path fill="none" stroke="black" d="M2159.88,-390.62C2145.47,-380.4 2126.75,-367.13 2111.05,-356"/>
<polygon fill="black" stroke="black" points="2112.87,-353 2102.68,-350.08 2108.82,-358.71 2112.87,-353"/>
</g>
<!-- group_balance_mask -->
<g id="node11" class="node">
<title>group_balance_mask</title>
<ellipse fill="none" stroke="black" cx="131" cy="-186" rx="106.68" ry="18"/>
<text text-anchor="middle" x="131" y="-182.3" font-family="Times,serif" font-size="14.00">group_balance_mask</text>
</g>
<!-- should_we_balance&#45;&gt;group_balance_mask -->
<g id="edge10" class="edge">
<title>should_we_balance&#45;&gt;group_balance_mask</title>
<path fill="none" stroke="black" d="M306.71,-242.15C272.32,-231.36 225.57,-216.69 188.94,-205.19"/>
<polygon fill="black" stroke="black" points="189.97,-201.84 179.38,-202.19 187.87,-208.52 189.97,-201.84"/>
</g>
<!-- group_balance_cpu -->
<g id="node12" class="node">
<title>group_balance_cpu</title>
<ellipse fill="none" stroke="black" cx="354" cy="-186" rx="98.58" ry="18"/>
<text text-anchor="middle" x="354" y="-182.3" font-family="Times,serif" font-size="14.00">group_balance_cpu</text>
</g>
<!-- should_we_balance&#45;&gt;group_balance_cpu -->
<g id="edge11" class="edge">
<title>should_we_balance&#45;&gt;group_balance_cpu</title>
<path fill="none" stroke="black" d="M354,-239.7C354,-231.98 354,-222.71 354,-214.11"/>
<polygon fill="black" stroke="black" points="357.5,-214.1 354,-204.1 350.5,-214.1 357.5,-214.1"/>
</g>
<!-- init_sd_lb_stats -->
<g id="node13" class="node">
<title>init_sd_lb_stats</title>
<ellipse fill="none" stroke="black" cx="855" cy="-186" rx="81.79" ry="18"/>
<text text-anchor="middle" x="855" y="-182.3" font-family="Times,serif" font-size="14.00">init_sd_lb_stats</text>
</g>
<!-- find_busiest_group&#45;&gt;init_sd_lb_stats -->
<g id="edge12" class="edge">
<title>find_busiest_group&#45;&gt;init_sd_lb_stats</title>
<path fill="none" stroke="black" d="M1350.64,-249.65C1252.08,-240.87 1087.09,-224.75 946,-204 938.7,-202.93 931.1,-201.69 923.53,-200.39"/>
<polygon fill="black" stroke="black" points="924.09,-196.93 913.63,-198.64 922.87,-203.83 924.09,-196.93"/>
</g>
<!-- update_sd_lb_stats -->
<g id="node14" class="node">
<title>update_sd_lb_stats</title>
<ellipse fill="none" stroke="black" cx="1054" cy="-186" rx="98.58" ry="18"/>
<text text-anchor="middle" x="1054" y="-182.3" font-family="Times,serif" font-size="14.00">update_sd_lb_stats</text>
</g>
<!-- find_busiest_group&#45;&gt;update_sd_lb_stats -->
<g id="edge13" class="edge">
<title>find_busiest_group&#45;&gt;update_sd_lb_stats</title>
<path fill="none" stroke="black" d="M1371.11,-244.81C1304.24,-232.62 1201.51,-213.89 1131.21,-201.08"/>
<polygon fill="black" stroke="black" points="1131.55,-197.58 1121.09,-199.23 1130.3,-204.47 1131.55,-197.58"/>
</g>
<!-- sched_energy_enabled -->
<g id="node15" class="node">
<title>sched_energy_enabled</title>
<ellipse fill="none" stroke="black" cx="1286" cy="-186" rx="115.08" ry="18"/>
<text text-anchor="middle" x="1286" y="-182.3" font-family="Times,serif" font-size="14.00">sched_energy_enabled</text>
</g>
<!-- find_busiest_group&#45;&gt;sched_energy_enabled -->
<g id="edge14" class="edge">
<title>find_busiest_group&#45;&gt;sched_energy_enabled</title>
<path fill="none" stroke="black" d="M1403.51,-241.12C1381.88,-231.15 1353.77,-218.21 1330.47,-207.48"/>
<polygon fill="black" stroke="black" points="1331.69,-204.19 1321.14,-203.19 1328.76,-210.55 1331.69,-204.19"/>
</g>
<!-- compare_local_busiest_group_type -->
<g id="node16" class="node">
<title>compare_local_busiest_group_type</title>
<ellipse fill="none" stroke="black" cx="1590" cy="-186" rx="170.87" ry="18"/>
<text text-anchor="middle" x="1590" y="-182.3" font-family="Times,serif" font-size="14.00">compare_local_busiest_group_type</text>
</g>
<!-- find_busiest_group&#45;&gt;compare_local_busiest_group_type -->
<g id="edge15" class="edge">
<title>find_busiest_group&#45;&gt;compare_local_busiest_group_type</title>
<path fill="none" stroke="black" d="M1472.49,-241.12C1493.82,-231.3 1521.43,-218.58 1544.53,-207.94"/>
<polygon fill="black" stroke="black" points="1546.17,-211.04 1553.79,-203.67 1543.25,-204.68 1546.17,-211.04"/>
</g>
<!-- calculate_imbalance -->
<g id="node17" class="node">
<title>calculate_imbalance</title>
<ellipse fill="none" stroke="black" cx="1883" cy="-186" rx="103.98" ry="18"/>
<text text-anchor="middle" x="1883" y="-182.3" font-family="Times,serif" font-size="14.00">calculate_imbalance</text>
</g>
<!-- find_busiest_group&#45;&gt;calculate_imbalance -->
<g id="edge16" class="edge">
<title>find_busiest_group&#45;&gt;calculate_imbalance</title>
<path fill="none" stroke="black" d="M1509.99,-245.68C1588.94,-233.26 1715.49,-213.35 1798.93,-200.22"/>
<polygon fill="black" stroke="black" points="1799.55,-203.67 1808.89,-198.66 1798.46,-196.75 1799.55,-203.67"/>
</g>
<!-- for_each_sched_group_span -->
<g id="node18" class="node">
<title>for_each_sched_group_span</title>
<ellipse fill="none" stroke="black" cx="616" cy="-186" rx="139.18" ry="18"/>
<text text-anchor="middle" x="616" y="-182.3" font-family="Times,serif" font-size="14.00">for_each_sched_group_span</text>
</g>
<!-- find_busiest_queue&#45;&gt;for_each_sched_group_span -->
<g id="edge17" class="edge">
<title>find_busiest_queue&#45;&gt;for_each_sched_group_span</title>
<path fill="none" stroke="black" d="M795.93,-242.24C761.39,-231.64 714.54,-217.25 677.31,-205.82"/>
<polygon fill="black" stroke="black" points="678.16,-202.42 667.58,-202.83 676.11,-209.12 678.16,-202.42"/>
</g>
<!-- can_migrate_task -->
<g id="node21" class="node">
<title>can_migrate_task</title>
<ellipse fill="lightyellow" stroke="black" cx="2248" cy="-186" rx="91.78" ry="18"/>
<text text-anchor="middle" x="2248" y="-182.3" font-family="Times,serif" font-size="14.00">can_migrate_task</text>
</g>
<!-- detach_tasks&#45;&gt;can_migrate_task -->
<g id="edge20" class="edge">
<title>detach_tasks&#45;&gt;can_migrate_task</title>
<path fill="none" stroke="black" d="M2350.7,-241.46C2332.13,-231.61 2307.87,-218.75 2287.59,-208"/>
<polygon fill="black" stroke="black" points="2289.06,-204.81 2278.59,-203.22 2285.78,-211 2289.06,-204.81"/>
</g>
<!-- switch_env_migration_type_DT -->
<g id="node22" class="node">
<title>switch_env_migration_type_DT</title>
<ellipse fill="none" stroke="black" cx="2512" cy="-186" rx="154.07" ry="18"/>
<text text-anchor="middle" x="2512" y="-182.3" font-family="Times,serif" font-size="14.00">switch_env_migration_type_DT</text>
</g>
<!-- detach_tasks&#45;&gt;switch_env_migration_type_DT -->
<g id="edge21" class="edge">
<title>detach_tasks&#45;&gt;switch_env_migration_type_DT</title>
<path fill="none" stroke="black" d="M2409.3,-241.46C2427.61,-231.75 2451.44,-219.11 2471.54,-208.45"/>
<polygon fill="black" stroke="black" points="2473.29,-211.49 2480.48,-203.71 2470.01,-205.31 2473.29,-211.49"/>
</g>
<!-- detach_task -->
<g id="node23" class="node">
<title>detach_task</title>
<ellipse fill="none" stroke="black" cx="2750" cy="-186" rx="65.79" ry="18"/>
<text text-anchor="middle" x="2750" y="-182.3" font-family="Times,serif" font-size="14.00">detach_task</text>
</g>
<!-- detach_tasks&#45;&gt;detach_task -->
<g id="edge22" class="edge">
<title>detach_tasks&#45;&gt;detach_task</title>
<path fill="none" stroke="black" d="M2437.53,-247.46C2497.09,-237.39 2592.77,-220.7 2675,-204 2680.4,-202.9 2686,-201.72 2691.61,-200.5"/>
<polygon fill="black" stroke="black" points="2692.64,-203.86 2701.66,-198.3 2691.14,-197.02 2692.64,-203.86"/>
</g>
<!-- attach_task -->
<g id="node24" class="node">
<title>attach_task</title>
<ellipse fill="none" stroke="black" cx="2075" cy="-186" rx="63.89" ry="18"/>
<text text-anchor="middle" x="2075" y="-182.3" font-family="Times,serif" font-size="14.00">attach_task</text>
</g>
<!-- attach_tasks&#45;&gt;attach_task -->
<g id="edge23" class="edge">
<title>attach_tasks&#45;&gt;attach_task</title>
<path fill="none" stroke="black" d="M2078.76,-239.7C2078.21,-231.98 2077.55,-222.71 2076.94,-214.11"/>
<polygon fill="black" stroke="black" points="2080.43,-213.83 2076.22,-204.1 2073.44,-214.33 2080.43,-213.83"/>
</g>
<!-- need_active_balance&#45;&gt;stop_one_cpu_nowait -->
<g id="edge24" class="edge">
<title>need_active_balance&#45;&gt;stop_one_cpu_nowait</title>
<path fill="none" stroke="black" stroke-dasharray="5,2" d="M2963.4,-240.05C2972.92,-231.28 2984.7,-220.43 2995.13,-210.83"/>
<polygon fill="black" stroke="black" points="2997.79,-213.14 3002.77,-203.79 2993.05,-207.99 2997.79,-213.14"/>
</g>
<!-- active_load_balance_cpu_stop -->
<g id="node25" class="node">
<title>active_load_balance_cpu_stop</title>
<ellipse fill="lightyellow" stroke="black" cx="3021" cy="-114" rx="147.57" ry="18"/>
<text text-anchor="middle" x="3021" y="-110.3" font-family="Times,serif" font-size="14.00">active_load_balance_cpu_stop</text>
</g>
<!-- stop_one_cpu_nowait&#45;&gt;active_load_balance_cpu_stop -->
<g id="edge25" class="edge">
<title>stop_one_cpu_nowait&#45;&gt;active_load_balance_cpu_stop</title>
<path fill="none" stroke="black" stroke-dasharray="5,2" d="M3021,-167.7C3021,-159.98 3021,-150.71 3021,-142.11"/>
<polygon fill="black" stroke="black" points="3024.5,-142.1 3021,-132.1 3017.5,-142.1 3024.5,-142.1"/>
</g>
<!-- fbq_classify_rq -->
<g id="node19" class="node">
<title>fbq_classify_rq</title>
<ellipse fill="none" stroke="black" cx="586" cy="-114" rx="79.09" ry="18"/>
<text text-anchor="middle" x="586" y="-110.3" font-family="Times,serif" font-size="14.00">fbq_classify_rq</text>
</g>
<!-- for_each_sched_group_span&#45;&gt;fbq_classify_rq -->
<g id="edge18" class="edge">
<title>for_each_sched_group_span&#45;&gt;fbq_classify_rq</title>
<path fill="none" stroke="black" d="M608.58,-167.7C605.21,-159.81 601.13,-150.3 597.38,-141.55"/>
<polygon fill="black" stroke="black" points="600.49,-139.92 593.33,-132.1 594.05,-142.67 600.49,-139.92"/>
</g>
<!-- switch_env_migration_type_FBQ -->
<g id="node20" class="node">
<title>switch_env_migration_type_FBQ</title>
<ellipse fill="none" stroke="black" cx="844" cy="-114" rx="161.37" ry="18"/>
<text text-anchor="middle" x="844" y="-110.3" font-family="Times,serif" font-size="14.00">switch_env_migration_type_FBQ</text>
</g>
<!-- for_each_sched_group_span&#45;&gt;switch_env_migration_type_FBQ -->
<g id="edge19" class="edge">
<title>for_each_sched_group_span&#45;&gt;switch_env_migration_type_FBQ</title>
<path fill="none" stroke="black" d="M667.45,-169.2C701.31,-158.81 745.82,-145.14 781.68,-134.13"/>
<polygon fill="black" stroke="black" points="783.02,-137.38 791.55,-131.1 780.96,-130.69 783.02,-137.38"/>
</g>
<!-- detach_one_task -->
<g id="node26" class="node">
<title>detach_one_task</title>
<ellipse fill="none" stroke="black" cx="2927" cy="-42" rx="87.18" ry="18"/>
<text text-anchor="middle" x="2927" y="-38.3" font-family="Times,serif" font-size="14.00">detach_one_task</text>
</g>
<!-- active_load_balance_cpu_stop&#45;&gt;detach_one_task -->
<g id="edge26" class="edge">
<title>active_load_balance_cpu_stop&#45;&gt;detach_one_task</title>
<path fill="none" stroke="black" d="M2998.25,-96.05C2986.03,-86.96 2970.81,-75.63 2957.58,-65.77"/>
<polygon fill="black" stroke="black" points="2959.33,-62.71 2949.22,-59.55 2955.15,-68.33 2959.33,-62.71"/>
</g>
<!-- attach_one_task -->
<g id="node27" class="node">
<title>attach_one_task</title>
<ellipse fill="none" stroke="black" cx="3117" cy="-42" rx="85.29" ry="18"/>
<text text-anchor="middle" x="3117" y="-38.3" font-family="Times,serif" font-size="14.00">attach_one_task</text>
</g>
<!-- active_load_balance_cpu_stop&#45;&gt;attach_one_task -->
<g id="edge27" class="edge">
<title>active_load_balance_cpu_stop&#45;&gt;attach_one_task</title>
<path fill="none" stroke="black" d="M3044.24,-96.05C3056.83,-86.87 3072.55,-75.41 3086.16,-65.49"/>
<polygon fill="black" stroke="black" points="3088.29,-68.27 3094.31,-59.55 3084.16,-62.61 3088.29,-68.27"/>
</g>
</g>
</svg>
