<?xml version="1.0" encoding="UTF-8" standalone="no"?>
<!DOCTYPE svg PUBLIC "-//W3C//DTD SVG 1.1//EN"
 "http://www.w3.org/Graphics/SVG/1.1/DTD/svg11.dtd">
<!-- Generated by graphviz version 2.43.0 (0)
 -->
<!-- Title: newidle_balance Pages: 1 -->
<svg width="1173pt" height="937pt"
 viewBox="0.00 0.00 1173.00 937.00" xmlns="http://www.w3.org/2000/svg" xmlns:xlink="http://www.w3.org/1999/xlink">
<g id="graph0" class="graph" transform="scale(1 1) rotate(0) translate(4 933)">
<title>newidle_balance</title>
<polygon fill="white" stroke="transparent" points="-4,4 -4,-933 1169,-933 1169,4 -4,4"/>
<g id="clust1" class="cluster">
<title>cluster_1</title>
<polygon fill="none" stroke="red" points="26,-321 26,-921 755,-921 755,-321 26,-321"/>
<text text-anchor="middle" x="390.5" y="-905.8" font-family="Times,serif" font-size="14.00">触发 New Idle Load Balance</text>
</g>
<g id="clust3" class="cluster">
<title>cluster_2</title>
<polygon fill="none" stroke="blue" points="8,-8 8,-302 1157,-302 1157,-8 8,-8"/>
<text text-anchor="middle" x="582.5" y="-286.8" font-family="Times,serif" font-size="14.00">执行 New Idle Load Balance</text>
</g>
<!-- __schedule -->
<g id="node1" class="node">
<title>__schedule</title>
<ellipse fill="none" stroke="black" cx="495" cy="-872" rx="60.39" ry="18"/>
<text text-anchor="middle" x="495" y="-868.3" font-family="Times,serif" font-size="14.00">__schedule</text>
</g>
<!-- pick_next_task -->
<g id="node2" class="node">
<title>pick_next_task</title>
<ellipse fill="none" stroke="black" cx="495" cy="-799" rx="78.79" ry="18"/>
<text text-anchor="middle" x="495" y="-795.3" font-family="Times,serif" font-size="14.00">pick_next_task</text>
</g>
<!-- __schedule&#45;&gt;pick_next_task -->
<g id="edge1" class="edge">
<title>__schedule&#45;&gt;pick_next_task</title>
<path fill="none" stroke="black" d="M495,-853.81C495,-845.79 495,-836.05 495,-827.07"/>
<polygon fill="black" stroke="black" points="498.5,-827.03 495,-817.03 491.5,-827.03 498.5,-827.03"/>
</g>
<!-- __pick_next_task -->
<g id="node3" class="node">
<title>__pick_next_task</title>
<ellipse fill="none" stroke="black" cx="385" cy="-712" rx="87.18" ry="18"/>
<text text-anchor="middle" x="385" y="-708.3" font-family="Times,serif" font-size="14.00">__pick_next_task</text>
</g>
<!-- pick_next_task&#45;&gt;__pick_next_task -->
<g id="edge2" class="edge">
<title>pick_next_task&#45;&gt;__pick_next_task</title>
<path fill="none" stroke="black" d="M450.22,-784.13C437.89,-778.86 425.13,-771.91 415,-763 407.52,-756.42 401.36,-747.51 396.61,-739.04"/>
<polygon fill="black" stroke="black" points="399.71,-737.42 392.01,-730.14 393.49,-740.63 399.71,-737.42"/>
<text text-anchor="middle" x="502.5" y="-751.8" font-family="Times,serif" font-size="14.00">!sched_core_enabled(rq)</text>
</g>
<!-- put_prev_task_balance -->
<g id="node4" class="node">
<title>put_prev_task_balance</title>
<ellipse fill="none" stroke="black" cx="631" cy="-639" rx="115.88" ry="18"/>
<text text-anchor="middle" x="631" y="-635.3" font-family="Times,serif" font-size="14.00">put_prev_task_balance</text>
</g>
<!-- pick_next_task&#45;&gt;put_prev_task_balance -->
<g id="edge3" class="edge">
<title>pick_next_task&#45;&gt;put_prev_task_balance</title>
<path fill="none" stroke="black" d="M551.62,-786.37C565.64,-781.19 579.6,-773.73 590,-763 615.31,-736.89 625,-694.75 628.71,-667.21"/>
<polygon fill="black" stroke="black" points="632.21,-667.42 629.89,-657.09 625.26,-666.61 632.21,-667.42"/>
<text text-anchor="middle" x="694" y="-708.3" font-family="Times,serif" font-size="14.00">sched_core_enabled</text>
</g>
<!-- __pick_next_task&#45;&gt;put_prev_task_balance -->
<g id="edge4" class="edge">
<title>__pick_next_task&#45;&gt;put_prev_task_balance</title>
<path fill="none" stroke="black" d="M433.6,-696.97C472.36,-685.79 526.91,-670.04 568.84,-657.94"/>
<polygon fill="black" stroke="black" points="570.03,-661.24 578.67,-655.1 568.09,-654.51 570.03,-661.24"/>
</g>
<!-- pick_next_task_fair -->
<g id="node5" class="node">
<title>pick_next_task_fair</title>
<ellipse fill="lightyellow" stroke="black" cx="344" cy="-566" rx="98.58" ry="18"/>
<text text-anchor="middle" x="344" y="-562.3" font-family="Times,serif" font-size="14.00">pick_next_task_fair</text>
</g>
<!-- __pick_next_task&#45;&gt;pick_next_task_fair -->
<g id="edge5" class="edge">
<title>__pick_next_task&#45;&gt;pick_next_task_fair</title>
<path fill="none" stroke="black" d="M298.39,-709.58C208.6,-706.06 76.97,-694.44 45,-657 -12.97,-589.1 127.39,-571.32 234.89,-567.27"/>
<polygon fill="black" stroke="black" points="235.31,-570.75 245.18,-566.92 235.07,-563.76 235.31,-570.75"/>
</g>
<!-- pick_next_task_idle -->
<g id="node6" class="node">
<title>pick_next_task_idle</title>
<ellipse fill="none" stroke="black" cx="154" cy="-639" rx="100.18" ry="18"/>
<text text-anchor="middle" x="154" y="-635.3" font-family="Times,serif" font-size="14.00">pick_next_task_idle</text>
</g>
<!-- __pick_next_task&#45;&gt;pick_next_task_idle -->
<g id="edge6" class="edge">
<title>__pick_next_task&#45;&gt;pick_next_task_idle</title>
<path fill="none" stroke="black" d="M338.53,-696.72C302.09,-685.52 251.18,-669.87 212.06,-657.85"/>
<polygon fill="black" stroke="black" points="212.97,-654.46 202.38,-654.87 210.91,-661.15 212.97,-654.46"/>
</g>
<!-- class_pick_next_task -->
<g id="node7" class="node">
<title>class_pick_next_task</title>
<ellipse fill="lightyellow" stroke="black" cx="385" cy="-639" rx="112.38" ry="18"/>
<text text-anchor="middle" x="385" y="-635.3" font-family="Times,serif" font-size="14.00">class&#45;&gt;pick_next_task</text>
</g>
<!-- __pick_next_task&#45;&gt;class_pick_next_task -->
<g id="edge7" class="edge">
<title>__pick_next_task&#45;&gt;class_pick_next_task</title>
<path fill="none" stroke="black" d="M385,-693.81C385,-685.79 385,-676.05 385,-667.07"/>
<polygon fill="black" stroke="black" points="388.5,-667.03 385,-657.03 381.5,-667.03 388.5,-667.03"/>
</g>
<!-- for_class_range_prev_to_idle -->
<g id="node8" class="node">
<title>for_class_range_prev_to_idle</title>
<ellipse fill="none" stroke="black" cx="604" cy="-566" rx="142.97" ry="18"/>
<text text-anchor="middle" x="604" y="-562.3" font-family="Times,serif" font-size="14.00">for_class_range_prev_to_idle</text>
</g>
<!-- put_prev_task_balance&#45;&gt;for_class_range_prev_to_idle -->
<g id="edge9" class="edge">
<title>put_prev_task_balance&#45;&gt;for_class_range_prev_to_idle</title>
<path fill="none" stroke="black" d="M624.46,-620.81C621.35,-612.62 617.55,-602.62 614.07,-593.48"/>
<polygon fill="black" stroke="black" points="617.3,-592.13 610.48,-584.03 610.76,-594.62 617.3,-592.13"/>
</g>
<!-- newidle_balance -->
<g id="node11" class="node">
<title>newidle_balance</title>
<ellipse fill="palegreen" stroke="black" cx="395" cy="-347" rx="87.18" ry="18"/>
<text text-anchor="middle" x="395" y="-343.3" font-family="Times,serif" font-size="14.00">newidle_balance</text>
</g>
<!-- pick_next_task_fair&#45;&gt;newidle_balance -->
<g id="edge13" class="edge">
<title>pick_next_task_fair&#45;&gt;newidle_balance</title>
<path fill="none" stroke="black" d="M348,-547.97C356.81,-510.51 377.92,-420.68 388.59,-375.26"/>
<polygon fill="black" stroke="black" points="392.07,-375.78 390.95,-365.25 385.25,-374.18 392.07,-375.78"/>
</g>
<!-- class_pick_next_task&#45;&gt;pick_next_task_fair -->
<g id="edge8" class="edge">
<title>class_pick_next_task&#45;&gt;pick_next_task_fair</title>
<path fill="none" stroke="black" stroke-dasharray="5,2" d="M375.08,-620.81C370.24,-612.44 364.33,-602.2 358.96,-592.9"/>
<polygon fill="black" stroke="black" points="361.87,-590.94 353.83,-584.03 355.8,-594.44 361.87,-590.94"/>
</g>
<!-- class_balance -->
<g id="node9" class="node">
<title>class_balance</title>
<ellipse fill="lightyellow" stroke="black" cx="540" cy="-493" rx="79.89" ry="18"/>
<text text-anchor="middle" x="540" y="-489.3" font-family="Times,serif" font-size="14.00">class&#45;&gt;balance</text>
</g>
<!-- for_class_range_prev_to_idle&#45;&gt;class_balance -->
<g id="edge10" class="edge">
<title>for_class_range_prev_to_idle&#45;&gt;class_balance</title>
<path fill="none" stroke="black" d="M588.51,-547.81C580.57,-539 570.76,-528.13 562.05,-518.46"/>
<polygon fill="black" stroke="black" points="564.65,-516.11 555.35,-511.03 559.45,-520.8 564.65,-516.11"/>
</g>
<!-- balance_fair -->
<g id="node10" class="node">
<title>balance_fair</title>
<ellipse fill="lightyellow" stroke="black" cx="493" cy="-420" rx="66.89" ry="18"/>
<text text-anchor="middle" x="493" y="-416.3" font-family="Times,serif" font-size="14.00">balance_fair</text>
</g>
<!-- class_balance&#45;&gt;balance_fair -->
<g id="edge11" class="edge">
<title>class_balance&#45;&gt;balance_fair</title>
<path fill="none" stroke="black" d="M528.86,-475.17C523.21,-466.63 516.22,-456.08 509.92,-446.56"/>
<polygon fill="black" stroke="black" points="512.82,-444.61 504.38,-438.2 506.99,-448.47 512.82,-444.61"/>
</g>
<!-- balance_fair&#45;&gt;newidle_balance -->
<g id="edge12" class="edge">
<title>balance_fair&#45;&gt;newidle_balance</title>
<path fill="none" stroke="black" d="M470.76,-402.89C457.54,-393.31 440.58,-381.02 426.05,-370.5"/>
<polygon fill="black" stroke="black" points="427.98,-367.57 417.83,-364.54 423.87,-373.24 427.98,-367.57"/>
</g>
<!-- update_misfit_status -->
<g id="node12" class="node">
<title>update_misfit_status</title>
<ellipse fill="none" stroke="black" cx="123" cy="-180" rx="106.68" ry="18"/>
<text text-anchor="middle" x="123" y="-176.3" font-family="Times,serif" font-size="14.00">update_misfit_status</text>
</g>
<!-- newidle_balance&#45;&gt;update_misfit_status -->
<g id="edge14" class="edge">
<title>newidle_balance&#45;&gt;update_misfit_status</title>
<path fill="none" stroke="black" d="M367.93,-329.58C318.66,-299.69 214.38,-236.43 159.12,-202.91"/>
<polygon fill="black" stroke="black" points="160.73,-199.8 150.37,-197.6 157.1,-205.78 160.73,-199.8"/>
</g>
<!-- update_next_balance -->
<g id="node13" class="node">
<title>update_next_balance</title>
<ellipse fill="none" stroke="black" cx="355" cy="-180" rx="107.78" ry="18"/>
<text text-anchor="middle" x="355" y="-176.3" font-family="Times,serif" font-size="14.00">update_next_balance</text>
</g>
<!-- newidle_balance&#45;&gt;update_next_balance -->
<g id="edge15" class="edge">
<title>newidle_balance&#45;&gt;update_next_balance</title>
<path fill="none" stroke="black" d="M385.42,-328.91C381.33,-320.95 376.86,-311.22 374,-302 364.29,-270.68 359.39,-233.2 357.02,-208.33"/>
<polygon fill="black" stroke="black" points="360.49,-207.84 356.13,-198.19 353.52,-208.45 360.49,-207.84"/>
</g>
<!-- update_blocked_averages -->
<g id="node14" class="node">
<title>update_blocked_averages</title>
<ellipse fill="none" stroke="black" cx="1020" cy="-180" rx="129.18" ry="18"/>
<text text-anchor="middle" x="1020" y="-176.3" font-family="Times,serif" font-size="14.00">update_blocked_averages</text>
</g>
<!-- newidle_balance&#45;&gt;update_blocked_averages -->
<g id="edge16" class="edge">
<title>newidle_balance&#45;&gt;update_blocked_averages</title>
<path fill="none" stroke="black" d="M458.35,-334.5C501.34,-326.34 559.35,-314.63 610,-302 736.55,-270.44 882.56,-225.19 961.68,-199.92"/>
<polygon fill="black" stroke="black" points="963,-203.17 971.46,-196.79 960.87,-196.5 963,-203.17"/>
</g>
<!-- for_each_domain_ILB -->
<g id="node15" class="node">
<title>for_each_domain_ILB</title>
<ellipse fill="none" stroke="black" cx="492" cy="-253" rx="108.58" ry="18"/>
<text text-anchor="middle" x="492" y="-249.3" font-family="Times,serif" font-size="14.00">for_each_domain_ILB</text>
</g>
<!-- newidle_balance&#45;&gt;for_each_domain_ILB -->
<g id="edge17" class="edge">
<title>newidle_balance&#45;&gt;for_each_domain_ILB</title>
<path fill="none" stroke="black" d="M412.79,-329.13C427.97,-314.73 449.96,-293.87 466.92,-277.78"/>
<polygon fill="black" stroke="black" points="469.47,-280.19 474.32,-270.77 464.66,-275.11 469.47,-280.19"/>
</g>
<!-- nohz_newidle_balance -->
<g id="node16" class="node">
<title>nohz_newidle_balance</title>
<ellipse fill="none" stroke="black" cx="450" cy="-107" rx="113.18" ry="18"/>
<text text-anchor="middle" x="450" y="-103.3" font-family="Times,serif" font-size="14.00">nohz_newidle_balance</text>
</g>
<!-- update_misfit_status&#45;&gt;nohz_newidle_balance -->
<g id="edge18" class="edge">
<title>update_misfit_status&#45;&gt;nohz_newidle_balance</title>
<path fill="none" stroke="black" d="M185.66,-165.39C239.98,-153.6 318.67,-136.52 376.06,-124.05"/>
<polygon fill="black" stroke="black" points="377.13,-127.4 386.16,-121.86 375.64,-120.56 377.13,-127.4"/>
</g>
<!-- update_next_balance&#45;&gt;nohz_newidle_balance -->
<g id="edge19" class="edge">
<title>update_next_balance&#45;&gt;nohz_newidle_balance</title>
<path fill="none" stroke="black" d="M377.51,-162.17C390.05,-152.8 405.84,-141 419.48,-130.81"/>
<polygon fill="black" stroke="black" points="421.73,-133.5 427.65,-124.71 417.54,-127.89 421.73,-133.5"/>
</g>
<!-- update_blocked_averages&#45;&gt;nohz_newidle_balance -->
<g id="edge20" class="edge">
<title>update_blocked_averages&#45;&gt;nohz_newidle_balance</title>
<path fill="none" stroke="black" d="M927.15,-167.43C822.33,-154.38 652.59,-133.24 546.35,-120"/>
<polygon fill="black" stroke="black" points="546.63,-116.51 536.27,-118.75 545.76,-123.46 546.63,-116.51"/>
</g>
<!-- for_each_domain_ILB&#45;&gt;update_next_balance -->
<g id="edge22" class="edge">
<title>for_each_domain_ILB&#45;&gt;update_next_balance</title>
<path fill="none" stroke="black" d="M460.57,-235.71C441.3,-225.73 416.43,-212.84 395.67,-202.08"/>
<polygon fill="black" stroke="black" points="397.25,-198.95 386.76,-197.46 394.03,-205.17 397.25,-198.95"/>
</g>
<!-- for_each_domain_ILB&#45;&gt;nohz_newidle_balance -->
<g id="edge21" class="edge">
<title>for_each_domain_ILB&#45;&gt;nohz_newidle_balance</title>
<path fill="none" stroke="black" d="M489.08,-234.86C485.76,-216.58 479.78,-186.9 472,-162 469.15,-152.87 465.41,-143.13 461.82,-134.47"/>
<polygon fill="black" stroke="black" points="465.03,-133.07 457.89,-125.24 458.59,-135.81 465.03,-133.07"/>
</g>
<!-- load_balance -->
<g id="node17" class="node">
<title>load_balance</title>
<ellipse fill="orange" stroke="black" cx="571" cy="-180" rx="70.39" ry="18"/>
<text text-anchor="middle" x="571" y="-176.3" font-family="Times,serif" font-size="14.00">load_balance</text>
</g>
<!-- for_each_domain_ILB&#45;&gt;load_balance -->
<g id="edge23" class="edge">
<title>for_each_domain_ILB&#45;&gt;load_balance</title>
<path fill="none" stroke="black" d="M510.72,-235.17C521.03,-225.91 533.97,-214.28 545.22,-204.17"/>
<polygon fill="black" stroke="black" points="547.59,-206.75 552.69,-197.46 542.91,-201.54 547.59,-206.75"/>
</g>
<!-- update_newidle_cost -->
<g id="node18" class="node">
<title>update_newidle_cost</title>
<ellipse fill="none" stroke="black" cx="766" cy="-180" rx="106.68" ry="18"/>
<text text-anchor="middle" x="766" y="-176.3" font-family="Times,serif" font-size="14.00">update_newidle_cost</text>
</g>
<!-- for_each_domain_ILB&#45;&gt;update_newidle_cost -->
<g id="edge24" class="edge">
<title>for_each_domain_ILB&#45;&gt;update_newidle_cost</title>
<path fill="none" stroke="black" d="M547.78,-237.55C592.04,-226.08 654.01,-210.02 700.6,-197.95"/>
<polygon fill="black" stroke="black" points="701.5,-201.33 710.3,-195.43 699.74,-194.55 701.5,-201.33"/>
</g>
<!-- set_NOHZ_NEWILB_KICK -->
<g id="node19" class="node">
<title>set_NOHZ_NEWILB_KICK</title>
<ellipse fill="none" stroke="black" cx="450" cy="-34" rx="131.08" ry="18"/>
<text text-anchor="middle" x="450" y="-30.3" font-family="Times,serif" font-size="14.00">set_NOHZ_NEWILB_KICK</text>
</g>
<!-- nohz_newidle_balance&#45;&gt;set_NOHZ_NEWILB_KICK -->
<g id="edge25" class="edge">
<title>nohz_newidle_balance&#45;&gt;set_NOHZ_NEWILB_KICK</title>
<path fill="none" stroke="black" d="M450,-88.81C450,-80.79 450,-71.05 450,-62.07"/>
<polygon fill="black" stroke="black" points="453.5,-62.03 450,-52.03 446.5,-62.03 453.5,-62.03"/>
</g>
</g>
</svg>
