<?xml version="1.0" encoding="UTF-8" standalone="no"?>
<!DOCTYPE svg PUBLIC "-//W3C//DTD SVG 1.1//EN"
 "http://www.w3.org/Graphics/SVG/1.1/DTD/svg11.dtd">
<!-- Generated by graphviz version 2.43.0 (0)
 -->
<!-- Title: load_balance Pages: 1 -->
<svg width="1331pt" height="440pt"
 viewBox="0.00 0.00 1331.00 440.00" xmlns="http://www.w3.org/2000/svg" xmlns:xlink="http://www.w3.org/1999/xlink">
<g id="graph0" class="graph" transform="scale(1 1) rotate(0) translate(4 436)">
<title>load_balance</title>
<polygon fill="white" stroke="transparent" points="-4,4 -4,-436 1327,-436 1327,4 -4,4"/>
<g id="clust1" class="cluster">
<title>cluster_0</title>
<polygon fill="none" stroke="red" points="344,-189 344,-424 884,-424 884,-189 344,-189"/>
<text text-anchor="middle" x="614" y="-408.8" font-family="Times,serif" font-size="14.00">触发选核(被动负载均衡)</text>
</g>
<g id="clust2" class="cluster">
<title>cluster_1</title>
<polygon fill="none" stroke="blue" points="8,-8 8,-156 280,-156 280,-8 8,-8"/>
<text text-anchor="middle" x="144" y="-140.8" font-family="Times,serif" font-size="14.00">唤醒路径的能效感知</text>
</g>
<g id="clust3" class="cluster">
<title>cluster_2</title>
<polygon fill="none" stroke="blue" points="879,-8 879,-156 1315,-156 1315,-8 879,-8"/>
<text text-anchor="middle" x="1097" y="-140.8" font-family="Times,serif" font-size="14.00">慢速路径</text>
</g>
<g id="clust5" class="cluster">
<title>cluster_3</title>
<polygon fill="none" stroke="blue" points="288,-8 288,-156 870,-156 870,-8 288,-8"/>
<text text-anchor="middle" x="579" y="-140.8" font-family="Times,serif" font-size="14.00">唤醒快速路径</text>
</g>
<!-- wake_up_new_task -->
<g id="node1" class="node">
<title>wake_up_new_task</title>
<ellipse fill="lightyellow" stroke="black" cx="778" cy="-375" rx="98.28" ry="18"/>
<text text-anchor="middle" x="778" y="-371.3" font-family="Times,serif" font-size="14.00">wake_up_new_task</text>
</g>
<!-- select_task_rq -->
<g id="node2" class="node">
<title>select_task_rq</title>
<ellipse fill="none" stroke="black" cx="599" cy="-288" rx="76.89" ry="18"/>
<text text-anchor="middle" x="599" y="-284.3" font-family="Times,serif" font-size="14.00">select_task_rq</text>
</g>
<!-- wake_up_new_task&#45;&gt;select_task_rq -->
<g id="edge1" class="edge">
<title>wake_up_new_task&#45;&gt;select_task_rq</title>
<path fill="none" stroke="black" d="M745.5,-357.77C725.52,-347.87 699.36,-335.03 676,-324 665.22,-318.91 653.53,-313.52 642.59,-308.55"/>
<polygon fill="black" stroke="black" points="643.77,-305.24 633.21,-304.29 640.87,-311.61 643.77,-305.24"/>
<text text-anchor="middle" x="745" y="-327.8" font-family="Times,serif" font-size="14.00">WF_TTWU</text>
</g>
<!-- select_task_rq_fair -->
<g id="node5" class="node">
<title>select_task_rq_fair</title>
<ellipse fill="palegreen" stroke="black" cx="599" cy="-215" rx="96.68" ry="18"/>
<text text-anchor="middle" x="599" y="-211.3" font-family="Times,serif" font-size="14.00">select_task_rq_fair</text>
</g>
<!-- select_task_rq&#45;&gt;select_task_rq_fair -->
<g id="edge4" class="edge">
<title>select_task_rq&#45;&gt;select_task_rq_fair</title>
<path fill="none" stroke="black" stroke-dasharray="5,2" d="M599,-269.81C599,-261.79 599,-252.05 599,-243.07"/>
<polygon fill="black" stroke="black" points="602.5,-243.03 599,-233.03 595.5,-243.03 602.5,-243.03"/>
</g>
<!-- sched_exec -->
<g id="node3" class="node">
<title>sched_exec</title>
<ellipse fill="lightyellow" stroke="black" cx="599" cy="-375" rx="63.09" ry="18"/>
<text text-anchor="middle" x="599" y="-371.3" font-family="Times,serif" font-size="14.00">sched_exec</text>
</g>
<!-- sched_exec&#45;&gt;select_task_rq -->
<g id="edge2" class="edge">
<title>sched_exec&#45;&gt;select_task_rq</title>
<path fill="none" stroke="black" d="M599,-356.8C599,-345.16 599,-329.55 599,-316.24"/>
<polygon fill="black" stroke="black" points="602.5,-316.18 599,-306.18 595.5,-316.18 602.5,-316.18"/>
<text text-anchor="middle" x="635.5" y="-327.8" font-family="Times,serif" font-size="14.00">WF_EXEC</text>
</g>
<!-- try_to_wake_up -->
<g id="node4" class="node">
<title>try_to_wake_up</title>
<ellipse fill="lightyellow" stroke="black" cx="435" cy="-375" rx="82.59" ry="18"/>
<text text-anchor="middle" x="435" y="-371.3" font-family="Times,serif" font-size="14.00">try_to_wake_up</text>
</g>
<!-- try_to_wake_up&#45;&gt;select_task_rq -->
<g id="edge3" class="edge">
<title>try_to_wake_up&#45;&gt;select_task_rq</title>
<path fill="none" stroke="black" d="M460.27,-357.84C476.71,-347.61 498.77,-334.39 519,-324 529.85,-318.42 541.78,-312.9 553.05,-307.94"/>
<polygon fill="black" stroke="black" points="554.53,-311.11 562.31,-303.91 551.75,-304.69 554.53,-311.11"/>
<text text-anchor="middle" x="557" y="-327.8" font-family="Times,serif" font-size="14.00">WF_TTWU</text>
</g>
<!-- find_energy_efficient_cpu -->
<g id="node6" class="node">
<title>find_energy_efficient_cpu</title>
<ellipse fill="lightyellow" stroke="black" cx="144" cy="-107" rx="128.08" ry="18"/>
<text text-anchor="middle" x="144" y="-103.3" font-family="Times,serif" font-size="14.00">find_energy_efficient_cpu</text>
</g>
<!-- select_task_rq_fair&#45;&gt;find_energy_efficient_cpu -->
<g id="edge5" class="edge">
<title>select_task_rq_fair&#45;&gt;find_energy_efficient_cpu</title>
<path fill="none" stroke="black" d="M509.08,-208.24C454.84,-203.37 384.72,-194.58 324,-179 275.76,-166.62 223.03,-144.77 187.18,-128.57"/>
<polygon fill="black" stroke="black" points="188.54,-125.34 177.99,-124.37 185.63,-131.71 188.54,-125.34"/>
<text text-anchor="middle" x="459.5" y="-167.8" font-family="Times,serif" font-size="14.00">WF_TTWU &amp;&amp; sched_energy_enabled</text>
</g>
<!-- select_idle_sibling -->
<g id="node7" class="node">
<title>select_idle_sibling</title>
<ellipse fill="lightyellow" stroke="black" cx="599" cy="-107" rx="94.78" ry="18"/>
<text text-anchor="middle" x="599" y="-103.3" font-family="Times,serif" font-size="14.00">select_idle_sibling</text>
</g>
<!-- select_task_rq_fair&#45;&gt;select_idle_sibling -->
<g id="edge6" class="edge">
<title>select_task_rq_fair&#45;&gt;select_idle_sibling</title>
<path fill="none" stroke="black" d="M599,-196.97C599,-180.38 599,-154.88 599,-135.43"/>
<polygon fill="black" stroke="black" points="602.5,-135.34 599,-125.34 595.5,-135.34 602.5,-135.34"/>
<text text-anchor="middle" x="780.5" y="-167.8" font-family="Times,serif" font-size="14.00">want_affine &amp;&amp; SD_WAKE_AFFINE &amp;&amp; WF_TTWU</text>
</g>
<!-- find_idlest_cpu -->
<g id="node8" class="node">
<title>find_idlest_cpu</title>
<ellipse fill="lightyellow" stroke="black" cx="977" cy="-107" rx="79.09" ry="18"/>
<text text-anchor="middle" x="977" y="-103.3" font-family="Times,serif" font-size="14.00">find_idlest_cpu</text>
</g>
<!-- select_task_rq_fair&#45;&gt;find_idlest_cpu -->
<g id="edge7" class="edge">
<title>select_task_rq_fair&#45;&gt;find_idlest_cpu</title>
<path fill="none" stroke="black" d="M693.27,-210.7C794.44,-206.27 943.36,-196.79 963,-179 974.91,-168.21 978.42,-150.47 978.94,-135.42"/>
<polygon fill="black" stroke="black" points="982.44,-135.06 978.87,-125.08 975.44,-135.1 982.44,-135.06"/>
</g>
<!-- compute_energy -->
<g id="node9" class="node">
<title>compute_energy</title>
<ellipse fill="none" stroke="black" cx="144" cy="-34" rx="87.18" ry="18"/>
<text text-anchor="middle" x="144" y="-30.3" font-family="Times,serif" font-size="14.00">compute_energy</text>
</g>
<!-- find_energy_efficient_cpu&#45;&gt;compute_energy -->
<g id="edge8" class="edge">
<title>find_energy_efficient_cpu&#45;&gt;compute_energy</title>
<path fill="none" stroke="black" d="M144,-88.81C144,-80.79 144,-71.05 144,-62.07"/>
<polygon fill="black" stroke="black" points="147.5,-62.03 144,-52.03 140.5,-62.03 147.5,-62.03"/>
</g>
<!-- select_idle_capacity -->
<g id="node12" class="node">
<title>select_idle_capacity</title>
<ellipse fill="none" stroke="black" cx="399" cy="-34" rx="102.88" ry="18"/>
<text text-anchor="middle" x="399" y="-30.3" font-family="Times,serif" font-size="14.00">select_idle_capacity</text>
</g>
<!-- select_idle_sibling&#45;&gt;select_idle_capacity -->
<g id="edge11" class="edge">
<title>select_idle_sibling&#45;&gt;select_idle_capacity</title>
<path fill="none" stroke="black" d="M556.09,-90.77C525.72,-79.99 484.78,-65.45 452.31,-53.92"/>
<polygon fill="black" stroke="black" points="453.12,-50.5 442.52,-50.45 450.78,-57.09 453.12,-50.5"/>
</g>
<!-- select_idle_smt -->
<g id="node13" class="node">
<title>select_idle_smt</title>
<ellipse fill="none" stroke="black" cx="601" cy="-34" rx="81.49" ry="18"/>
<text text-anchor="middle" x="601" y="-30.3" font-family="Times,serif" font-size="14.00">select_idle_smt</text>
</g>
<!-- select_idle_sibling&#45;&gt;select_idle_smt -->
<g id="edge12" class="edge">
<title>select_idle_sibling&#45;&gt;select_idle_smt</title>
<path fill="none" stroke="black" d="M599.48,-88.81C599.71,-80.79 599.98,-71.05 600.24,-62.07"/>
<polygon fill="black" stroke="black" points="603.74,-62.12 600.52,-52.03 596.74,-61.93 603.74,-62.12"/>
</g>
<!-- select_idle_cpu -->
<g id="node14" class="node">
<title>select_idle_cpu</title>
<ellipse fill="none" stroke="black" cx="781" cy="-34" rx="80.69" ry="18"/>
<text text-anchor="middle" x="781" y="-30.3" font-family="Times,serif" font-size="14.00">select_idle_cpu</text>
</g>
<!-- select_idle_sibling&#45;&gt;select_idle_cpu -->
<g id="edge13" class="edge">
<title>select_idle_sibling&#45;&gt;select_idle_cpu</title>
<path fill="none" stroke="black" d="M638.49,-90.59C666.29,-79.75 703.66,-65.17 733.16,-53.66"/>
<polygon fill="black" stroke="black" points="734.79,-56.78 742.83,-49.89 732.24,-50.26 734.79,-56.78"/>
</g>
<!-- find_idlest_group -->
<g id="node10" class="node">
<title>find_idlest_group</title>
<ellipse fill="none" stroke="black" cx="977" cy="-34" rx="90.18" ry="18"/>
<text text-anchor="middle" x="977" y="-30.3" font-family="Times,serif" font-size="14.00">find_idlest_group</text>
</g>
<!-- find_idlest_cpu&#45;&gt;find_idlest_group -->
<g id="edge9" class="edge">
<title>find_idlest_cpu&#45;&gt;find_idlest_group</title>
<path fill="none" stroke="black" d="M977,-88.81C977,-80.79 977,-71.05 977,-62.07"/>
<polygon fill="black" stroke="black" points="980.5,-62.03 977,-52.03 973.5,-62.03 980.5,-62.03"/>
</g>
<!-- find_idlest_group_cpu -->
<g id="node11" class="node">
<title>find_idlest_group_cpu</title>
<ellipse fill="none" stroke="black" cx="1196" cy="-34" rx="111.28" ry="18"/>
<text text-anchor="middle" x="1196" y="-30.3" font-family="Times,serif" font-size="14.00">find_idlest_group_cpu</text>
</g>
<!-- find_idlest_cpu&#45;&gt;find_idlest_group_cpu -->
<g id="edge10" class="edge">
<title>find_idlest_cpu&#45;&gt;find_idlest_group_cpu</title>
<path fill="none" stroke="black" d="M1020.53,-91.89C1054.54,-80.86 1102.08,-65.45 1139.1,-53.45"/>
<polygon fill="black" stroke="black" points="1140.33,-56.73 1148.76,-50.32 1138.17,-50.07 1140.33,-56.73"/>
</g>
</g>
</svg>
