<?xml version="1.0" encoding="UTF-8" standalone="no"?>
<!DOCTYPE svg PUBLIC "-//W3C//DTD SVG 1.1//EN"
 "http://www.w3.org/Graphics/SVG/1.1/DTD/svg11.dtd">
<!-- Generated by graphviz version 2.43.0 (0)
 -->
<!-- Title: rebalance_domains Pages: 1 -->
<svg width="1032pt" height="542pt"
 viewBox="0.00 0.00 1032.00 542.00" xmlns="http://www.w3.org/2000/svg" xmlns:xlink="http://www.w3.org/1999/xlink">
<g id="graph0" class="graph" transform="scale(1 1) rotate(0) translate(4 538)">
<title>rebalance_domains</title>
<polygon fill="white" stroke="transparent" points="-4,4 -4,-538 1028,-538 1028,4 -4,4"/>
<g id="clust1" class="cluster">
<title>cluster_1</title>
<polygon fill="none" stroke="red" points="8,-163 8,-526 706,-526 706,-163 8,-163"/>
<text text-anchor="middle" x="357" y="-510.8" font-family="Times,serif" font-size="14.00">触发 Periodic Load Balance</text>
</g>
<g id="clust4" class="cluster">
<title>cluster_2</title>
<polygon fill="none" stroke="blue" points="133,-8 133,-155 1016,-155 1016,-8 133,-8"/>
<text text-anchor="middle" x="574.5" y="-139.8" font-family="Times,serif" font-size="14.00">执行 Periodic Load Balance</text>
</g>
<!-- scheduler_tick -->
<g id="node1" class="node">
<title>scheduler_tick</title>
<ellipse fill="none" stroke="black" cx="456" cy="-477" rx="77.19" ry="18"/>
<text text-anchor="middle" x="456" y="-473.3" font-family="Times,serif" font-size="14.00">scheduler_tick</text>
</g>
<!-- trigger_load_balance -->
<g id="node2" class="node">
<title>trigger_load_balance</title>
<ellipse fill="none" stroke="black" cx="456" cy="-405" rx="107.48" ry="18"/>
<text text-anchor="middle" x="456" y="-401.3" font-family="Times,serif" font-size="14.00">trigger_load_balance</text>
</g>
<!-- scheduler_tick&#45;&gt;trigger_load_balance -->
<g id="edge1" class="edge">
<title>scheduler_tick&#45;&gt;trigger_load_balance</title>
<path fill="none" stroke="black" d="M456,-458.7C456,-450.98 456,-441.71 456,-433.11"/>
<polygon fill="black" stroke="black" points="459.5,-433.1 456,-423.1 452.5,-433.1 459.5,-433.1"/>
</g>
<!-- raise_softirq_SCHED_SOFTIRQ -->
<g id="node3" class="node">
<title>raise_softirq_SCHED_SOFTIRQ</title>
<ellipse fill="lightyellow" stroke="black" cx="321" cy="-333" rx="158.67" ry="18"/>
<text text-anchor="middle" x="321" y="-329.3" font-family="Times,serif" font-size="14.00">raise_softirq(SCHED_SOFTIRQ)</text>
</g>
<!-- trigger_load_balance&#45;&gt;raise_softirq_SCHED_SOFTIRQ -->
<g id="edge2" class="edge">
<title>trigger_load_balance&#45;&gt;raise_softirq_SCHED_SOFTIRQ</title>
<path fill="none" stroke="black" d="M424.69,-387.76C406.05,-378.1 382.17,-365.72 362.04,-355.28"/>
<polygon fill="black" stroke="black" points="363.57,-352.13 353.08,-350.63 360.35,-358.34 363.57,-352.13"/>
</g>
<!-- nohz_balancer_kick -->
<g id="node4" class="node">
<title>nohz_balancer_kick</title>
<ellipse fill="none" stroke="black" cx="598" cy="-333" rx="100.18" ry="18"/>
<text text-anchor="middle" x="598" y="-329.3" font-family="Times,serif" font-size="14.00">nohz_balancer_kick</text>
</g>
<!-- trigger_load_balance&#45;&gt;nohz_balancer_kick -->
<g id="edge3" class="edge">
<title>trigger_load_balance&#45;&gt;nohz_balancer_kick</title>
<path fill="none" stroke="black" d="M488.93,-387.76C508.92,-377.91 534.61,-365.25 556.04,-354.68"/>
<polygon fill="black" stroke="black" points="557.82,-357.71 565.24,-350.15 554.73,-351.43 557.82,-357.71"/>
</g>
<!-- run_rebalance_domains -->
<g id="node5" class="node">
<title>run_rebalance_domains</title>
<ellipse fill="none" stroke="black" cx="336" cy="-261" rx="120.48" ry="18"/>
<text text-anchor="middle" x="336" y="-257.3" font-family="Times,serif" font-size="14.00">run_rebalance_domains</text>
</g>
<!-- raise_softirq_SCHED_SOFTIRQ&#45;&gt;run_rebalance_domains -->
<g id="edge4" class="edge">
<title>raise_softirq_SCHED_SOFTIRQ&#45;&gt;run_rebalance_domains</title>
<path fill="none" stroke="black" stroke-dasharray="5,2" d="M324.71,-314.7C326.36,-306.98 328.35,-297.71 330.19,-289.11"/>
<polygon fill="black" stroke="black" points="333.66,-289.62 332.33,-279.1 326.82,-288.15 333.66,-289.62"/>
</g>
<!-- nohz_idle_balance -->
<g id="node6" class="node">
<title>nohz_idle_balance</title>
<ellipse fill="none" stroke="black" cx="110" cy="-189" rx="94.48" ry="18"/>
<text text-anchor="middle" x="110" y="-185.3" font-family="Times,serif" font-size="14.00">nohz_idle_balance</text>
</g>
<!-- run_rebalance_domains&#45;&gt;nohz_idle_balance -->
<g id="edge5" class="edge">
<title>run_rebalance_domains&#45;&gt;nohz_idle_balance</title>
<path fill="none" stroke="black" d="M286.12,-244.55C250.92,-233.65 203.69,-219.02 167,-207.65"/>
<polygon fill="black" stroke="black" points="168.02,-204.31 157.43,-204.69 165.95,-210.99 168.02,-204.31"/>
</g>
<!-- update_blocked_averages -->
<g id="node7" class="node">
<title>update_blocked_averages</title>
<ellipse fill="none" stroke="black" cx="352" cy="-189" rx="129.18" ry="18"/>
<text text-anchor="middle" x="352" y="-185.3" font-family="Times,serif" font-size="14.00">update_blocked_averages</text>
</g>
<!-- run_rebalance_domains&#45;&gt;update_blocked_averages -->
<g id="edge6" class="edge">
<title>run_rebalance_domains&#45;&gt;update_blocked_averages</title>
<path fill="none" stroke="black" d="M339.96,-242.7C341.72,-234.98 343.84,-225.71 345.8,-217.11"/>
<polygon fill="black" stroke="black" points="349.27,-217.63 348.09,-207.1 342.45,-216.07 349.27,-217.63"/>
</g>
<!-- rebalance_domains -->
<g id="node8" class="node">
<title>rebalance_domains</title>
<ellipse fill="palegreen" stroke="black" cx="599" cy="-189" rx="99.38" ry="18"/>
<text text-anchor="middle" x="599" y="-185.3" font-family="Times,serif" font-size="14.00">rebalance_domains</text>
</g>
<!-- run_rebalance_domains&#45;&gt;rebalance_domains -->
<g id="edge7" class="edge">
<title>run_rebalance_domains&#45;&gt;rebalance_domains</title>
<path fill="none" stroke="black" d="M392.1,-245.07C434.17,-233.87 491.8,-218.53 535.56,-206.89"/>
<polygon fill="black" stroke="black" points="536.47,-210.26 545.24,-204.31 534.67,-203.5 536.47,-210.26"/>
</g>
<!-- for_each_domain_LB -->
<g id="node9" class="node">
<title>for_each_domain_LB</title>
<ellipse fill="none" stroke="black" cx="599" cy="-106" rx="105.08" ry="18"/>
<text text-anchor="middle" x="599" y="-102.3" font-family="Times,serif" font-size="14.00">for_each_domain_LB</text>
</g>
<!-- rebalance_domains&#45;&gt;for_each_domain_LB -->
<g id="edge8" class="edge">
<title>rebalance_domains&#45;&gt;for_each_domain_LB</title>
<path fill="none" stroke="black" d="M599,-170.82C599,-160.19 599,-146.31 599,-134.2"/>
<polygon fill="black" stroke="black" points="602.5,-134.15 599,-124.15 595.5,-134.15 602.5,-134.15"/>
</g>
<!-- update_newidle_cost -->
<g id="node10" class="node">
<title>update_newidle_cost</title>
<ellipse fill="none" stroke="black" cx="248" cy="-34" rx="106.68" ry="18"/>
<text text-anchor="middle" x="248" y="-30.3" font-family="Times,serif" font-size="14.00">update_newidle_cost</text>
</g>
<!-- for_each_domain_LB&#45;&gt;update_newidle_cost -->
<g id="edge9" class="edge">
<title>for_each_domain_LB&#45;&gt;update_newidle_cost</title>
<path fill="none" stroke="black" d="M533.39,-91.92C474.09,-80.09 386.78,-62.68 324.36,-50.23"/>
<polygon fill="black" stroke="black" points="324.67,-46.72 314.18,-48.2 323.3,-53.59 324.67,-46.72"/>
</g>
<!-- get_sd_balance_interval -->
<g id="node11" class="node">
<title>get_sd_balance_interval</title>
<ellipse fill="none" stroke="black" cx="494" cy="-34" rx="121.58" ry="18"/>
<text text-anchor="middle" x="494" y="-30.3" font-family="Times,serif" font-size="14.00">get_sd_balance_interval</text>
</g>
<!-- for_each_domain_LB&#45;&gt;get_sd_balance_interval -->
<g id="edge10" class="edge">
<title>for_each_domain_LB&#45;&gt;get_sd_balance_interval</title>
<path fill="none" stroke="black" d="M574.12,-88.41C560.23,-79.15 542.73,-67.49 527.63,-57.42"/>
<polygon fill="black" stroke="black" points="529.33,-54.35 519.07,-51.71 525.45,-60.17 529.33,-54.35"/>
</g>
<!-- load_balance -->
<g id="node12" class="node">
<title>load_balance</title>
<ellipse fill="orange" stroke="black" cx="704" cy="-34" rx="70.39" ry="18"/>
<text text-anchor="middle" x="704" y="-30.3" font-family="Times,serif" font-size="14.00">load_balance</text>
</g>
<!-- for_each_domain_LB&#45;&gt;load_balance -->
<g id="edge11" class="edge">
<title>for_each_domain_LB&#45;&gt;load_balance</title>
<path fill="none" stroke="black" d="M623.88,-88.41C638.08,-78.95 656.04,-66.97 671.35,-56.76"/>
<polygon fill="black" stroke="black" points="673.64,-59.45 680.02,-50.99 669.76,-53.62 673.64,-59.45"/>
</g>
<!-- update_next_balance -->
<g id="node13" class="node">
<title>update_next_balance</title>
<ellipse fill="none" stroke="black" cx="900" cy="-34" rx="107.78" ry="18"/>
<text text-anchor="middle" x="900" y="-30.3" font-family="Times,serif" font-size="14.00">update_next_balance</text>
</g>
<!-- for_each_domain_LB&#45;&gt;update_next_balance -->
<g id="edge12" class="edge">
<title>for_each_domain_LB&#45;&gt;update_next_balance</title>
<path fill="none" stroke="black" d="M658.83,-91.09C708.11,-79.62 778.08,-63.35 829.97,-51.29"/>
<polygon fill="black" stroke="black" points="830.82,-54.68 839.77,-49.01 829.24,-47.86 830.82,-54.68"/>
</g>
</g>
</svg>
