<svg xmlns="http://www.w3.org/2000/svg" xmlns:xlink="http://www.w3.org/1999/xlink" xmlns:lucid="lucid" width="2485.27" height="1039.54"><g transform="translate(-56.5 -261.2196392822563)" lucid:page-tab-id="YGcM5DNywbTK"><g filter="url(#a)"><path d="M865.1 983.16h98.1v51.33h-98.1z" fill="none"/><use xlink:href="#b" transform="matrix(1,0,0,1,865.0950308599668,983.1618627655877) translate(20.648148148148145 31.333333333333336)"/></g><g filter="url(#c)"><path d="M1088.58 1054.6H1206v44.48h-117.42z" fill="none"/><use xlink:href="#d" transform="matrix(1,0,0,1,1088.5798726684732,1054.612695491447) translate(13.222222222222221 27.833333333333336)"/></g><g filter="url(#e)"><path d="M235.67 625.65h102.86v30.18H235.67z" fill="none"/><use xlink:href="#f" transform="matrix(1,0,0,1,235.66799413735893,625.6513683830137) translate(40.388888888888886 21.333333333333336)"/></g><g filter="url(#g)"><path d="M945.36 296.07h170.75v60H945.37z" fill="none"/><use xlink:href="#h" transform="matrix(1,0,0,1,945.3618393006346,296.07005479472167) translate(26.820987654320987 24.888888888888893)"/><use xlink:href="#i" transform="matrix(1,0,0,1,945.3618393006346,296.07005479472167) translate(59.57407407407407 65.95555555555558)"/><use xlink:href="#j" transform="matrix(1,0,0,1,945.3618393006346,296.07005479472167) translate(25.092592592592588 107.02222222222224)"/></g><g filter="url(#k)"><path d="M321.73 1001.43H444.4v68.2H321.72z" fill="none"/><use xlink:href="#l" transform="matrix(1,0,0,1,321.7298230825701,1001.4310810789447) translate(14.129629629629633 22.233333333333334)"/><use xlink:href="#m" transform="matrix(1,0,0,1,321.7298230825701,1001.4310810789447) translate(8.277777777777771 57.43333333333334)"/></g><g filter="url(#n)"><path d="M1273 282.22h98.03v60H1273z" fill="none"/><use xlink:href="#o" transform="matrix(1,0,0,1,1273,282.2196392822563) translate(12.339506172839506 36.22222222222222)"/></g><g filter="url(#p)"><path d="M801.78 1208.64h224.74v71.12H801.78z" fill="none"/><use xlink:href="#q" transform="matrix(1,0,0,1,801.7750966428421,1208.6449330999253) translate(2.746913580246911 25.77777777777778)"/><use xlink:href="#r" transform="matrix(1,0,0,1,801.7750966428421,1208.6449330999253) translate(124.35185185185185 25.77777777777778)"/><use xlink:href="#s" transform="matrix(1,0,0,1,801.7750966428421,1208.6449330999253) translate(65.64814814814815 55.111111111111114)"/><use xlink:href="#t" transform="matrix(1,0,0,1,801.7750966428421,1208.6449330999253) translate(108.85802469135803 55.111111111111114)"/></g><g filter="url(#u)"><path d="M251.73 296.07h240v60h-240z" fill="none"/><use xlink:href="#v" transform="matrix(1,0,0,1,251.72982308257005,296.07005479472167) translate(81.15432098765432 24.888888888888893)"/><use xlink:href="#w" transform="matrix(1,0,0,1,251.72982308257005,296.07005479472167) translate(53.58641975308642 65.95555555555558)"/><use xlink:href="#x" transform="matrix(1,0,0,1,251.72982308257005,296.07005479472167) translate(89.7962962962963 65.95555555555558)"/></g><g filter="url(#y)"><path d="M707.52 296.07h163.82v60H707.52z" fill="none"/><use xlink:href="#z" transform="matrix(1,0,0,1,707.5188641796602,296.07005479472167) translate(28.462962962962962 24.888888888888893)"/><use xlink:href="#i" transform="matrix(1,0,0,1,707.5188641796602,296.07005479472167) translate(56.07407407407407 65.95555555555558)"/><use xlink:href="#A" transform="matrix(1,0,0,1,707.5188641796602,296.07005479472167) translate(23.320987654320987 107.02222222222224)"/></g><g filter="url(#B)"><path d="M1307.15 692.73v-73.8h42.68v73.8z" fill="none"/><use xlink:href="#C" transform="matrix(6.123233995736766e-17,-1,1,6.123233995736766e-17,1307.1461148588342,692.7272386065797) translate(18.48148148148148 25.944444444444443)"/></g><g filter="url(#u)"><path d="M1516.55 282.22h240v60h-240z" fill="none"/><use xlink:href="#D" transform="matrix(1,0,0,1,1516.5517473611424,282.2196392822563) translate(20.790123456790127 36.22222222222222)"/><use xlink:href="#E" transform="matrix(1,0,0,1,1516.5517473611424,282.2196392822563) translate(144.97530864197532 36.22222222222222)"/></g><path d="M131.38 741.3l29.14 27.26v54.54l-29.14 27.27z" stroke="#3d4752" stroke-width="4" fill="#fff" filter="url(#F)"/><path d="M361.86 750.46h27.75v85.37h-27.74z" stroke="#3d4752" stroke-width="4" fill="#fff" filter="url(#G)"/><path d="M366.48 835.83h18.5l-9.24-14.23z" stroke="#3d4752" stroke-width="4" fill="#fff" filter="url(#H)"/><path d="M506.27 749.73h27.76v85.36h-27.76z" stroke="#3d4752" stroke-width="4" fill="#fff" filter="url(#G)"/><path d="M510.9 835.1h18.5l-9.25-14.24z" stroke="#3d4752" stroke-width="4" fill="#fff" filter="url(#H)"/><path d="M900.27 748.9h27.75v85.37h-27.75z" stroke="#3d4752" stroke-width="4" fill="#fff" filter="url(#G)"/><path d="M904.9 834.27h18.5l-9.25-14.23z" stroke="#3d4752" stroke-width="4" fill="#fff" filter="url(#H)"/><path d="M1450.26 581.3H1478v85.38h-27.74z" stroke="#3d4752" stroke-width="4" fill="#fff" filter="url(#G)"/><path d="M1454.88 666.68h18.5l-9.25-14.23z" stroke="#3d4752" stroke-width="4" fill="#fff" filter="url(#H)"/><path d="M1450.26 748.9H1478v85.37h-27.74z" stroke="#3d4752" stroke-width="4" fill="#fff" filter="url(#G)"/><path d="M1454.88 834.27h18.5l-9.25-14.23z" stroke="#3d4752" stroke-width="4" fill="#fff" filter="url(#H)"/><path d="M1450.26 916.07H1478v85.36h-27.74z" stroke="#3d4752" stroke-width="4" fill="#fff" filter="url(#G)"/><path d="M1454.88 1001.43h18.5l-9.25-14.23z" stroke="#3d4752" stroke-width="4" fill="#fff" filter="url(#H)"/><path d="M1399.7 624.76h20v59.96h-20zM1359.7 624.76h20v59.96h-20zM1339.7 624.76h20v59.96h-20zM1379.7 624.76h20v59.96h-20z" stroke="#3d4752" stroke-width="4" fill="#fff" filter="url(#I)"/><path d="M1337.7 684.72h-18" stroke="#494949" stroke-width="4" fill="none"/><path d="M1339.7 684.72h1v2h-3v-4h2z" fill="#494949"/><path d="M1399.7 564.8h20v59.96h-20zM1359.7 564.8h20v59.96h-20zM1339.7 564.8h20v59.96h-20zM1379.7 564.8h20v59.96h-20z" stroke="#3d4752" stroke-width="4" fill="#fff" filter="url(#I)"/><path d="M1319.7 564.8l18-.08" stroke="#494949" stroke-width="4" fill="none"/><path d="M1340.7 564.8h-1v1.92h-2v-4h3z" fill="#494949"/><path d="M1337.7 624.76h-18" stroke="#494949" stroke-width="4" fill="none"/><path d="M1339.7 624.76h1v2h-3v-4h2z" fill="#494949"/><path fill="#494949"/><path d="M1516.48 522.02h259.33V876.7H1516.5z" stroke="#3d4752" stroke-width="4" fill="#fff" filter="url(#J)"/><path d="M1516.48 896.64h259.33v169.34H1516.5z" stroke="#3d4752" stroke-width="4" fill="#fff" filter="url(#K)"/><path d="M183.84 753.1h27.76v85.37h-27.76z" stroke="#3d4752" stroke-width="4" fill="#fff" filter="url(#G)"/><path d="M188.47 838.47h18.5l-9.25-14.22z" stroke="#3d4752" stroke-width="4" fill="#fff" filter="url(#H)"/><path d="M234.93 655.83h103.6v152h-103.6z" stroke="#3d4752" stroke-width="4" fill="#fff" filter="url(#L)"/><path d="M244.76 731.92h83.94v34.8h-83.94z" stroke="#3d4752" stroke-width="4" fill="#fff"/><path d="M244.76 697.13h83.94v34.8h-83.94zM244.76 766.56h83.94v34.8h-83.94z" stroke="#3d4752" stroke-width="4" fill="#fff"/><path d="M244.76 662.34h83.94v34.8h-83.94z" stroke="#3d4752" stroke-width="4" fill="#fff"/><path d="M251.73 846.2h70v109.6h-70z" stroke="#3d4752" stroke-width="4" fill="#fff" filter="url(#M)"/><path d="M258.37 916.28h56.72v32.05h-56.73zM258.37 884.23h56.72v32.05h-56.73zM258.37 852.2h56.72v32.03h-56.73z" stroke="#3d4752" stroke-width="4" fill="#fff"/><path d="M412.94 738.34h70v109.6h-70z" stroke="#3d4752" stroke-width="4" fill="#fff" filter="url(#M)"/><path d="M419.6 808.43h56.7v32.05h-56.7zM419.6 776.4h56.7v32.03h-56.7zM419.6 744.34h56.7v32.05h-56.7z" stroke="#3d4752" stroke-width="4" fill="#fff"/><path d="M213.6 795.8h9.67v-63.97h9.66" stroke="#494949" stroke-width="4" fill="none"/><path d="M214.57 797.54l-2.63 1.45-.34-.62v-3.77l1.04-.56zM234.93 729.24V733l-1.03.58-1.94-3.5 2.63-1.45z" fill="#494949"/><path d="M213.6 795.8h9.37V901h26.76" stroke="#494949" stroke-width="4" fill="none"/><path d="M214.63 794.08l-2.06 3.43-.97-.58v-3.62l.46-.77zM251.73 903h-2v-4h2z" fill="#494949"/><path d="M323.73 901H449v281.5H77.5V795.83h51.88" stroke="#494949" stroke-width="4" fill="none"/><path d="M323.73 903h-2v-4h2zM131.38 797.83h-2v-4h2z" fill="#494949"/><path d="M340.53 731.83h9.66v61.3h9.66" stroke="#494949" stroke-width="4" fill="none"/><path d="M341.5 730.08l-1.94 3.5-1.03-.57v-3.76l.34-.6zM361.86 791.96v3.77l-.34.62-2.63-1.45 1.92-3.5z" fill="#494949"/><path d="M391.6 793.14h19.34" stroke="#494949" stroke-width="4" fill="none"/><path d="M391.6 795.14h-2v-4h2zM412.94 795.14h-2v-4h2z" fill="#494949"/><path d="M484.94 793.14h19.33" stroke="#494949" stroke-width="4" fill="none"/><path d="M484.94 795.14h-2v-4h2zM506.27 795.14h-2v-4h2z" fill="#494949"/><path d="M536.03 792.4l29.05.03" stroke="#494949" stroke-width="4" fill="none"/><path d="M536.03 790.4v4h-2v-4z" fill="#494949"/><path d="M580.08 792.45l-14.27 4.62.02-9.27z" stroke="#494949" stroke-width="4" fill="#494949"/><path d="M129.38 775.43h-40v-157.6h466.06v174.6" stroke="#494949" stroke-width="4" fill="none"/><path d="M131.38 777.43h-2v-4h2z" fill="#494949"/><path d="M648.56 752.45h20v80h-20zM608.56 752.45h20v80h-20zM588.56 752.45h20v80h-20zM628.56 752.45h20v80h-20z" stroke="#3d4752" stroke-width="4" fill="#fff" filter="url(#N)"/><path d="M568.56 752.45l18-.1" stroke="#494949" stroke-width="4" fill="none"/><path d="M589.56 752.45h-1v1.9h-2v-4h3z" fill="#494949"/><path d="M586.56 832.45h-18" stroke="#494949" stroke-width="4" fill="none"/><path d="M588.56 832.45h1v2h-3v-4h2z" fill="#494949"/><path d="M1319.7 564.8h100V684.7h-100z" stroke="#000" stroke-opacity="0" stroke-width="4" fill-opacity="0" filter="url(#O)"/><path d="M1320.7 565.8h100V685.7h-100z" stroke="#000" stroke-opacity="0" stroke-width="4" fill-opacity="0" filter="url(#O)"/><path d="M1399.2 791.22h20v59.96h-20zM1359.2 791.22h20v59.96h-20zM1339.2 791.22h20v59.96h-20zM1379.2 791.22h20v59.96h-20z" stroke="#3d4752" stroke-width="4" fill="#fff" filter="url(#I)"/><path d="M1337.2 851.18h-18" stroke="#494949" stroke-width="4" fill="none"/><path d="M1339.2 851.18h1v2h-3v-4h2z" fill="#494949"/><path d="M1399.2 731.25h20v59.97h-20zM1359.2 731.25h20v59.97h-20zM1339.2 731.25h20v59.97h-20zM1379.2 731.25h20v59.97h-20z" stroke="#3d4752" stroke-width="4" fill="#fff" filter="url(#I)"/><path d="M1319.2 731.25l18-.07" stroke="#494949" stroke-width="4" fill="none"/><path d="M1340.2 731.25h-1v1.93h-2v-4h3z" fill="#494949"/><path d="M1337.2 791.22h-18" stroke="#494949" stroke-width="4" fill="none"/><path d="M1339.2 791.22h1v2h-3v-4h2z" fill="#494949"/><path fill="#494949"/><path d="M1319.2 731.25h100v119.93h-100z" stroke="#000" stroke-opacity="0" stroke-width="4" fill-opacity="0" filter="url(#O)"/><path d="M1320.2 732.25h100v119.93h-100z" stroke="#000" stroke-opacity="0" stroke-width="4" fill-opacity="0" filter="url(#O)"/><path d="M1401.2 958.75h20v59.96h-20zM1361.2 958.75h20v59.96h-20zM1341.2 958.75h20v59.96h-20zM1381.2 958.75h20v59.96h-20z" stroke="#3d4752" stroke-width="4" fill="#fff" filter="url(#I)"/><path d="M1339.2 1018.7h-18" stroke="#494949" stroke-width="4" fill="none"/><path d="M1341.2 1018.7h1v2h-3v-4h2z" fill="#494949"/><path d="M1401.2 898.78h20v59.97h-20zM1361.2 898.78h20v59.97h-20zM1341.2 898.78h20v59.97h-20zM1381.2 898.78h20v59.97h-20z" stroke="#3d4752" stroke-width="4" fill="#fff" filter="url(#I)"/><path d="M1321.2 898.78l18-.07" stroke="#494949" stroke-width="4" fill="none"/><path d="M1342.2 898.78h-1v1.93h-2v-4h3z" fill="#494949"/><path d="M1339.2 958.75h-18" stroke="#494949" stroke-width="4" fill="none"/><path d="M1341.2 958.75h1v2h-3v-4h2z" fill="#494949"/><path fill="#494949"/><path d="M1321.2 898.78h100v119.93h-100z" stroke="#000" stroke-opacity="0" stroke-width="4" fill-opacity="0" filter="url(#O)"/><path d="M1322.2 899.78h100v119.93h-100z" stroke="#000" stroke-opacity="0" stroke-width="4" fill-opacity="0" filter="url(#O)"/><path d="M1448.26 624h-26.56" stroke="#494949" stroke-width="4" fill="none"/><path d="M1450.26 626h-2v-4h2zM1421.7 626h-3v-1.24h1V622h2z" fill="#494949"/><path d="M1448.26 791.6h-28.06" stroke="#494949" stroke-width="4" fill="none"/><path d="M1450.26 793.6h-2v-4h2z" fill="#494949"/><path fill="#494949"/><path d="M1448.26 958.75h-25.06" stroke="#494949" stroke-width="4" fill="none"/><path d="M1450.26 960.75h-2v-4h2zM1423.2 960.75h-3v-2h1v-2h2z" fill="#494949"/><path d="M1480 624h34.48" stroke="#494949" stroke-width="4" fill="none"/><path d="M1480 626h-2v-4h2zM1516.48 626h-2v-4h2z" fill="#494949"/><path d="M1480 791.6h34.48" stroke="#494949" stroke-width="4" fill="none"/><path d="M1480 793.6h-2v-4h2zM1516.48 793.6h-2v-4h2z" fill="#494949"/><g filter="url(#e)"><path d="M234.93 957.65H337.8v30.18H234.92z" fill="none"/><use xlink:href="#P" transform="matrix(1,0,0,1,234.9298230825701,957.6513683830137) translate(25.61111111111111 21.333333333333336)"/></g><g filter="url(#Q)"><path d="M367.17 665.86h166.86v63.5H367.17z" fill="none"/><use xlink:href="#R" transform="matrix(1,0,0,1,367.1656667497806,665.8618689437501) translate(36.12962962962963 21.333333333333336)"/><use xlink:href="#S" transform="matrix(1,0,0,1,367.1656667497806,665.8618689437501) translate(30.27777777777777 56.53333333333334)"/></g><g filter="url(#T)"><path d="M571.75 668.92H681.3v63.5H571.75z" fill="none"/><use xlink:href="#U" transform="matrix(1,0,0,1,571.745750189348,668.9209030041294) translate(21.703703703703695 21.333333333333336)"/><use xlink:href="#V" transform="matrix(1,0,0,1,571.745750189348,668.9209030041294) translate(19.74074074074074 56.53333333333334)"/></g><g filter="url(#W)"><path d="M1255.1 524.78h250.7v40h-250.7z" fill="none"/><use xlink:href="#X" transform="matrix(1,0,0,1,1255.0982105432001,524.781260704172) translate(12.981481481481467 25.833333333333336)"/><use xlink:href="#Y" transform="matrix(1,0,0,1,1255.0982105432001,524.781260704172) translate(86.9074074074074 25.833333333333336)"/><use xlink:href="#Z" transform="matrix(1,0,0,1,1255.0982105432001,524.781260704172) translate(158.01851851851853 25.833333333333336)"/></g><g filter="url(#W)"><path d="M1265.84 692.73h250.7v40h-250.7z" fill="none"/><use xlink:href="#aa" transform="matrix(1,0,0,1,1265.839836003802,692.7272386065796) translate(20.351851851851848 25.833333333333336)"/><use xlink:href="#Y" transform="matrix(1,0,0,1,1265.839836003802,692.7272386065796) translate(79.53703703703704 25.833333333333336)"/><use xlink:href="#Z" transform="matrix(1,0,0,1,1265.839836003802,692.7272386065796) translate(150.64814814814815 25.833333333333336)"/></g><g filter="url(#W)"><path d="M1263.84 858.7h250.7v40h-250.7z" fill="none"/><use xlink:href="#ab" transform="matrix(1,0,0,1,1263.839836003802,858.7025633028491) translate(29.5 25.833333333333336)"/><use xlink:href="#Y" transform="matrix(1,0,0,1,1263.839836003802,858.7025633028491) translate(70.38888888888889 25.833333333333336)"/><use xlink:href="#Z" transform="matrix(1,0,0,1,1263.839836003802,858.7025633028491) translate(141.5 25.833333333333336)"/></g><g filter="url(#ac)"><path d="M1566.14 604.34h160v194.3h-160z" stroke="#3d4752" stroke-width="4" fill="#fff"/><use xlink:href="#ad" transform="matrix(1,0,0,1,1571.1434552338737,609.3414411823509) translate(0.592592592592581 80.23333333333333)"/><use xlink:href="#ae" transform="matrix(1,0,0,1,1571.1434552338737,609.3414411823509) translate(107.1111111111111 80.23333333333333)"/><use xlink:href="#af" transform="matrix(1,0,0,1,1571.1434552338737,609.3414411823509) translate(7.8148148148148096 115.43333333333334)"/><use xlink:href="#ag" transform="matrix(1,0,0,1,1571.1434552338737,609.3414411823509) translate(50.62962962962963 115.43333333333334)"/></g><g filter="url(#ah)"><path d="M1566.14 931.3h160v100.03h-160z" stroke="#3d4752" stroke-width="4" fill="#fff"/><use xlink:href="#ad" transform="matrix(1,0,0,1,1571.1434552338737,936.2942967327933) translate(5 33.233333333333334)"/><use xlink:href="#ai" transform="matrix(1,0,0,1,1571.1434552338737,936.2942967327933) translate(111.51851851851852 33.233333333333334)"/><use xlink:href="#af" transform="matrix(1,0,0,1,1571.1434552338737,936.2942967327933) translate(7.8148148148148096 68.43333333333334)"/><use xlink:href="#aj" transform="matrix(1,0,0,1,1571.1434552338737,936.2942967327933) translate(50.62962962962963 68.43333333333334)"/></g><path d="M162.52 795.83h19.32" stroke="#494949" stroke-width="4" fill="none"/><path d="M162.52 797.83h-2v-4h2zM183.84 797.83h-2v-4h2z" fill="#494949"/><g filter="url(#B)"><path d="M1307.15 631.67v-73.8h42.68v73.8z" fill="none"/><use xlink:href="#ak" transform="matrix(6.123233995736766e-17,-1,1,6.123233995736766e-17,1307.1461148588342,631.673046527852) translate(16.01234567901235 25.944444444444443)"/></g><g filter="url(#B)"><path d="M1307.15 859.64v-73.8h42.68v73.8z" fill="none"/><use xlink:href="#C" transform="matrix(6.123233995736766e-17,-1,1,6.123233995736766e-17,1307.1461148588342,859.6434908327556) translate(18.48148148148148 25.944444444444443)"/></g><g filter="url(#al)"><path d="M1307.15 798.6v-73.8h42.68v73.8z" fill="none"/><use xlink:href="#ak" transform="matrix(6.123233995736766e-17,-1,1,6.123233995736766e-17,1307.1461148588342,798.5892987540278) translate(16.01234567901235 25.944444444444443)"/></g><g filter="url(#B)"><path d="M1307.15 1025.1v-73.8h42.68v73.8z" fill="none"/><use xlink:href="#C" transform="matrix(6.123233995736766e-17,-1,1,6.123233995736766e-17,1307.1461148588342,1025.1041421320942) translate(18.48148148148148 25.944444444444443)"/></g><g filter="url(#B)"><path d="M1307.15 964.05v-73.8h42.68v73.8z" fill="none"/><use xlink:href="#ak" transform="matrix(6.123233995736766e-17,-1,1,6.123233995736766e-17,1307.1461148588342,964.0499500533665) translate(16.01234567901235 25.944444444444443)"/></g><path d="M891.34 1036.85h20v80h-20zM851.34 1036.85h20v80h-20zM831.34 1036.85h20v80h-20zM871.34 1036.85h20v80h-20zM970.74 1036.85h20v80h-20zM930.74 1036.85h20v80h-20z" stroke="#3d4752" stroke-width="4" fill="#fff" filter="url(#N)"/><path d="M910.74 1036.85h20v80h-20zM950.74 1036.85h20v80h-20z" stroke="#3d4752" stroke-width="4" fill="#fff" filter="url(#N)"/><g filter="url(#am)"><path d="M807.06 887.84c0 22.58-13.2 40.88-29.52 40.88-13.04 0-24.04-11.07-28.07-28.25-38.35 1-45.73-67.14-30.97-94.4-22.14-13.62-14.76-81.75 7.38-81.75-7.38-40.88 22.14-81.76 59.04-54.5 29.52-27.26 66.42 0 51.66 54.5 19.2 13.63 19.2 68.13 0 81.76 14.76 27.25 7.38 81.76-29.52 81.76z" stroke="#3d4752" stroke-width="4" fill="#fff"/><use xlink:href="#an" transform="matrix(6.123233995736766e-17,-1,1,6.123233995736766e-17,708.7415788611005,923.7184978004083) translate(32.35185185185185 56.733333333333334)"/><use xlink:href="#ao" transform="matrix(6.123233995736766e-17,-1,1,6.123233995736766e-17,708.7415788611005,923.7184978004083) translate(131.537037037037 56.733333333333334)"/><use xlink:href="#ap" transform="matrix(6.123233995736766e-17,-1,1,6.123233995736766e-17,708.7415788611005,923.7184978004083) translate(186.2037037037037 56.733333333333334)"/><use xlink:href="#aq" transform="matrix(6.123233995736766e-17,-1,1,6.123233995736766e-17,708.7415788611005,923.7184978004083) translate(45.685185185185176 91.93333333333334)"/><use xlink:href="#ar" transform="matrix(6.123233995736766e-17,-1,1,6.123233995736766e-17,708.7415788611005,923.7184978004083) translate(153.6851851851852 91.93333333333334)"/></g><path d="M777.54 930.72v146.13h30.33" stroke="#494949" stroke-width="4" fill="none"/><path d="M777.54 928.72l2-.1v2.1h-4v-2.18z" fill="#494949"/><path d="M822.87 1076.85l-14.27 4.63v-9.27z" stroke="#494949" stroke-width="4" fill="#494949"/><path d="M706.58 792.45h-36.02" stroke="#494949" stroke-width="4" fill="none"/><path d="M708.68 792.46l.8 2h-2.9v-4h1.45zM670.56 794.45h-2v-4h2z" fill="#494949"/><path d="M848.4 792.45h49.87" stroke="#494949" stroke-width="4" fill="none"/><path d="M848.4 794.45h-3l.66-1.44.97-2.55h1.38zM900.27 794.45h-2v-4h2z" fill="#494949"/><g filter="url(#as)"><path d="M1085.07 872.43c0 19.13-13.22 34.64-29.52 34.64-13.04 0-24.04-9.38-28.08-23.94-38.34.85-45.72-56.9-30.96-80-22.13-11.54-14.75-69.3 7.4-69.3-7.4-34.63 22.13-69.28 59.03-46.18 29.52-23.1 66.42 0 51.66 46.2 19.18 11.54 19.18 57.74 0 69.28 14.75 23.1 7.37 69.3-29.53 69.3z" stroke="#3d4752" stroke-width="4" fill="#fff"/><use xlink:href="#at" transform="matrix(6.123233995736766e-17,-1,1,6.123233995736766e-17,986.7498891104086,902.0741994359814) translate(24.685185185185176 56.733333333333334)"/><use xlink:href="#au" transform="matrix(6.123233995736766e-17,-1,1,6.123233995736766e-17,986.7498891104086,902.0741994359814) translate(132.6851851851852 56.733333333333334)"/><use xlink:href="#av" transform="matrix(6.123233995736766e-17,-1,1,6.123233995736766e-17,986.7498891104086,902.0741994359814) translate(32.796296296296305 91.93333333333334)"/><use xlink:href="#aw" transform="matrix(6.123233995736766e-17,-1,1,6.123233995736766e-17,986.7498891104086,902.0741994359814) translate(84.64814814814817 91.93333333333334)"/></g><path d="M984.54 791.6h-54.52" stroke="#494949" stroke-width="4" fill="none"/><path d="M986.24 790.47l.97 2.27.34.64v.2h-3v-4h1.4zM930.03 793.6h-2v-4h2z" fill="#494949"/><path d="M1126.5 791.6h159.17" stroke="#494949" stroke-width="4" fill="none"/><path d="M1126.5 793.6h-3v-.4l.04-.1 1.18-2.45.43-1.06h1.34z" fill="#494949"/><path d="M1300.67 791.6l-14.26 4.62v-9.27z" stroke="#494949" stroke-width="4" fill="#494949"/><path d="M1126.5 791.6h90.32V624.4h68.85" stroke="#494949" stroke-width="4" fill="none"/><path d="M1126.5 793.6h-3v-.4l.04-.1 1.18-2.45.43-1.06h1.34z" fill="#494949"/><path d="M1300.67 624.4l-14.26 4.63v-9.27z" stroke="#494949" stroke-width="4" fill="#494949"/><path d="M1126.5 791.6h90.32v167.9h68.85" stroke="#494949" stroke-width="4" fill="none"/><path d="M1126.5 793.6h-3v-.4l.04-.1 1.18-2.45.43-1.06h1.34z" fill="#494949"/><path d="M1300.67 959.5l-14.26 4.65v-9.27z" stroke="#494949" stroke-width="4" fill="#494949"/><path d="M1480 958.75h34.48" stroke="#494949" stroke-width="4" fill="none"/><path d="M1480 960.75h-2v-4h2zM1516.48 960.75h-2v-4h2z" fill="#494949"/><path d="M912 1204l-.84-63.68" stroke="#494949" stroke-width="4" fill="none"/><path d="M910.96 1125.32l4.83 14.2-9.28.12z" stroke="#494949" stroke-width="4" fill="#494949"/><path d="M992.74 1076.85l69.8-.65" stroke="#494949" stroke-width="4" fill="none"/><path d="M992.75 1078.85l-2 .02v-4l1.97-.02z" fill="#494949"/><path d="M1077.53 1076.06l-14.22 4.77-.08-9.27z" stroke="#494949" stroke-width="4" fill="#494949"/><path d="M251.36 1031.33h70v109.6h-70z" stroke="#3d4752" stroke-width="4" fill="#fff" filter="url(#M)"/><path d="M258 1101.42h56.72v32.04H258zM258 1069.37h56.72v32.05H258zM258 1037.32h56.72v32.05H258z" stroke="#3d4752" stroke-width="4" fill="#fff"/><path d="M249.36 1085.27H223V795.8h-9.4" stroke="#494949" stroke-width="4" fill="none"/><path d="M251.36 1087.27h-2v-4h2zM214.63 794.07l-2.05 3.44-.98-.57v-3.64l.45-.76z" fill="#494949"/><path d="M323.36 1086.13H354V1165H101.5V817h27.88" stroke="#494949" stroke-width="4" fill="none"/><path d="M323.36 1088.13h-2v-4h2zM131.38 819h-2v-4h2z" fill="#494949"/><g filter="url(#u)"><path d="M2087.48 282.22h240v60h-240z" fill="none"/><use xlink:href="#ax" transform="matrix(1,0,0,1,2087.480819578873,282.2196392822563) translate(63.956790123456784 36.22222222222222)"/></g><g filter="url(#ay)"><path d="M2344.46 282.22h168.67v60h-168.67z" fill="none"/><use xlink:href="#az" transform="matrix(1,0,0,1,2344.456758436179,282.2196392822563) translate(15.796296296296305 36.22222222222222)"/></g><g filter="url(#u)"><path d="M1847.48 282.22h240v60h-240z" fill="none"/><use xlink:href="#aA" transform="matrix(1,0,0,1,1847.4808195788733,282.2196392822563) translate(63.82716049382716 36.22222222222222)"/></g><path d="M1896.65 1084.43h260v190h-260z" stroke="#3d4752" stroke-width="4" fill="#fff" filter="url(#aB)"/><path d="M2016.65 1121.1v-13.3l-100-13.33v13.32l33.33 6.65-33.33 6.66v13.33z" stroke="#3d4752" stroke-width="4" fill="#fff" filter="url(#aC)"/><path d="M2016.65 1181.1v-13.33l-100-13.34v13.34l33.33 6.66-33.33 6.67v13.33z" stroke="#3d4752" stroke-width="4" fill="#fff" filter="url(#aD)"/><path d="M2076.65 1241.1v-13.33l-160-13.34v13.34l53.33 6.66-53.33 6.67v13.33z" stroke="#3d4752" stroke-width="4" fill="#fff" filter="url(#aE)"/><path d="M1896.65 798.64h260v255.8h-260z" stroke="#3d4752" stroke-width="4" fill="#fff" filter="url(#aF)"/><path d="M2016.65 835.32V822l-100-13.32V822l33.33 6.66-33.33 6.66v13.32z" stroke="#3d4752" stroke-width="4" fill="#fff" filter="url(#aC)"/><path d="M2076.65 955.3V942l-160-13.34v13.34l53.33 6.66-53.33 6.67v13.34zM2076.65 895.3V882l-160-13.34v13.34l53.33 6.66-53.33 6.67v13.34z" stroke="#3d4752" stroke-width="4" fill="#fff" filter="url(#aE)"/><path d="M1896.65 578.64h260v80h-260z" stroke="#3d4752" stroke-width="4" fill="#fff" filter="url(#aG)"/><path d="M2016.65 625.3V612l-100-13.34v13.34l33.33 6.66-33.33 6.67v13.34z" stroke="#3d4752" stroke-width="4" fill="#fff" filter="url(#aD)"/><path d="M1938.65 387.23h400v140h-400z" stroke="#3d4752" stroke-width="4" fill="#fff" filter="url(#aH)"/><path d="M2059.3 407.25h25.38v20.07h-25.4zM2008.5 407.25h25.4v20.07h-25.4zM1983.1 407.25h25.4v20.07h-25.4z" stroke="#3d4752" stroke-width="4" fill="#fff" filter="url(#aI)"/><path d="M2033.9 407.25h25.4v20.07h-25.4z" stroke="#3d4752" stroke-width="4" fill="#fff" filter="url(#aI)"/><path d="M1957.7 407.25l23.4.34" stroke="#494949" stroke-width="4" fill="none"/><path d="M1984.12 405.63l-.02 1.62h-1v2.36h-2.03l.05-4z" fill="#494949"/><path d="M1981.1 426.97l-23.4.35" stroke="#494949" stroke-width="4" fill="none"/><path d="M1983.1 427.32h1l.02 1.6-3 .05-.06-4 2.03-.03z" fill="#494949"/><path d="M2059.3 487.28h25.38v20.07h-25.4zM2008.5 487.28h25.4v20.07h-25.4zM1983.1 487.28h25.4v20.07h-25.4z" stroke="#3d4752" stroke-width="4" fill="#fff" filter="url(#aI)"/><path d="M2033.9 487.28h25.4v20.07h-25.4z" stroke="#3d4752" stroke-width="4" fill="#fff" filter="url(#aI)"/><path d="M1957.7 487.28l23.4.33" stroke="#494949" stroke-width="4" fill="none"/><path d="M1984.12 485.65l-.02 1.63h-1v2.36l-2.03-.03.05-4z" fill="#494949"/><path d="M1981.1 507l-23.4.35" stroke="#494949" stroke-width="4" fill="none"/><path d="M1983.1 507.35h1l.02 1.6-3 .04-.06-4 2.03-.04z" fill="#494949"/><path d="M2059.3 447.26h25.38v20.07h-25.4zM2008.5 447.26h25.4v20.07h-25.4zM1983.1 447.26h25.4v20.07h-25.4z" stroke="#3d4752" stroke-width="4" fill="#fff" filter="url(#aI)"/><path d="M2033.9 447.26h25.4v20.07h-25.4z" stroke="#3d4752" stroke-width="4" fill="#fff" filter="url(#aI)"/><path d="M1957.7 447.26l23.4.34" stroke="#494949" stroke-width="4" fill="none"/><path d="M1984.12 445.64l-.02 1.62h-1v2.37l-2.03-.03.05-4z" fill="#494949"/><path d="M1981.1 466.98l-23.4.35" stroke="#494949" stroke-width="4" fill="none"/><path d="M1983.1 467.33h1l.02 1.6-3 .05-.06-4 2.03-.03z" fill="#494949"/><g filter="url(#aJ)"><path d="M2064.63 356.07h148.04v32h-148.04z" fill="none"/><use xlink:href="#aK" transform="matrix(1,0,0,1,2064.627701432007,356.0700547947217) translate(23.5 21.833333333333336)"/><use xlink:href="#aL" transform="matrix(1,0,0,1,2064.627701432007,356.0700547947217) translate(64.9074074074074 21.833333333333336)"/></g><g filter="url(#aM)"><path d="M2084.68 441.3h70.7v32h-70.7z" fill="none"/><use xlink:href="#aN" transform="matrix(1,0,0,1,2084.6820698090896,441.2931837539452) translate(6.648148148148145 21.833333333333336)"/></g><g filter="url(#aM)"><path d="M2084.68 481.3h70.7v32.02h-70.7z" fill="none"/><use xlink:href="#aO" transform="matrix(1,0,0,1,2084.6820698090905,481.3047656862159) translate(8.833333333333329 21.833333333333336)"/></g><path d="M2160.73 401.28H2323v110.74h-162.27z" stroke="#3d4752" stroke-width="4" fill="#fff" filter="url(#aP)"/><path d="M2176.13 456.72h131.46v25.35h-131.47zM2176.13 431.37h131.46v25.35h-131.47z" stroke="#3d4752" stroke-width="4" fill="#fff"/><path d="M2176.13 481.96h131.46v25.34h-131.47zM2176.13 406.02h131.46v25.35h-131.47z" stroke="#3d4752" stroke-width="4" fill="#fff"/><g filter="url(#aM)"><path d="M2085.68 402.28h70.7v32h-70.7z" fill="none"/><use xlink:href="#aQ" transform="matrix(1,0,0,1,2085.6820698090905,402.2816018216745) translate(7.351851851851848 21.833333333333336)"/></g><path d="M2217.86 441.3h48v34.9h-48z" stroke="#fff" stroke-width="4" fill="#fff"/><use xlink:href="#aR" transform="matrix(1,0,0,1,2222.8606478330967,446.2931837539451) translate(2 21.333333333333336)"/><g filter="url(#aS)"><path d="M2019.3 816.1h118.25v30.1H2019.3z" fill="none"/><use xlink:href="#aT" transform="matrix(1,0,0,1,2019.2852444122648,816.0871825782715) translate(11.425925925925924 21.333333333333336)"/></g><g filter="url(#aU)"><path d="M2019.3 603.1h128.28v35.54h-128.3z" fill="none"/><use xlink:href="#aV" transform="matrix(1,0,0,1,2019.2852444122648,603.107014354672) translate(8.351851851851848 23.333333333333336)"/></g><g filter="url(#aW)"><path d="M2080.02 933.6h76.63v35.54h-76.63z" fill="none"/><use xlink:href="#aX" transform="matrix(1,0,0,1,2080.018904879222,933.6055623804896) translate(16.388888888888886 23.333333333333336)"/></g><g filter="url(#aW)"><path d="M2076.65 873.1h76.63v35.54h-76.63z" fill="none"/><use xlink:href="#aY" transform="matrix(1,0,0,1,2076.650323777344,873.1070143546717) translate(14.16666666666666 23.333333333333336)"/></g><g filter="url(#aZ)"><path d="M2024.63 1097.12h84.63v37.35h-84.63z" fill="none"/><use xlink:href="#ba" transform="matrix(1,0,0,1,2024.627701432007,1097.118376484601) translate(3.2777777777777786 24.333333333333336)"/></g><g filter="url(#bb)"><path d="M2024.63 1158.1h73.96v40h-73.97z" fill="none"/><use xlink:href="#bc" transform="matrix(1,0,0,1,2024.6277014320071,1158.1097249677018) translate(0.8148148148148096 25.333333333333336)"/></g><g filter="url(#bd)"><path d="M2081.35 1221.75h73.97v37.35h-73.97z" fill="none"/><use xlink:href="#be" transform="matrix(1,0,0,1,2081.3522382125557,1221.7504370836705) translate(8.92592592592592 24.333333333333336)"/></g><path d="M2158.65 1179.43l221.94.4" stroke="#494949" stroke-width="4" fill="none"/><path d="M2158.65 1177.43v4h-2v-4z" fill="#494949"/><path d="M2395.6 1179.87l-14.28 4.6v-9.26z" stroke="#494949" stroke-width="4" fill="#494949"/><path d="M2158.65 926.54l222.86-1.8" stroke="#494949" stroke-width="4" fill="none"/><path d="M2158.67 928.54l-2.02.02v-4l1.98-.02z" fill="#494949"/><path d="M2396.5 924.6l-14.22 4.75-.08-9.27z" stroke="#494949" stroke-width="4" fill="#494949"/><path d="M2340.65 457.23h39.94" stroke="#494949" stroke-width="4" fill="none"/><path d="M2340.65 459.23h-2v-4h2z" fill="#494949"/><path d="M2395.6 457.23l-14.28 4.63v-9.27z" stroke="#494949" stroke-width="4" fill="#494949"/><g filter="url(#bf)"><path d="M2402.06 418.34h118.7v68.94h-118.7z" fill="none"/><use xlink:href="#bg" transform="matrix(1,0,0,1,2402.062601856592,418.33693610018355) translate(6.499999999999993 22.233333333333334)"/><use xlink:href="#bh" transform="matrix(1,0,0,1,2402.062601856592,418.33693610018355) translate(41.981481481481474 22.233333333333334)"/><use xlink:href="#bi" transform="matrix(1,0,0,1,2402.062601856592,418.33693610018355) translate(41.79629629629629 57.43333333333334)"/></g><g filter="url(#bj)"><path d="M2402.98 889.8h110.15v68.95h-110.15z" fill="none"/><use xlink:href="#bg" transform="matrix(1,0,0,1,2402.979547865893,889.8097168699969) translate(2.499999999999993 22.233333333333334)"/><use xlink:href="#bh" transform="matrix(1,0,0,1,2402.979547865893,889.8097168699969) translate(37.981481481481474 22.233333333333334)"/><use xlink:href="#bi" transform="matrix(1,0,0,1,2402.979547865893,889.8097168699969) translate(37.79629629629629 57.43333333333334)"/></g><g filter="url(#bf)"><path d="M2402.06 1145.5h118.7v68.93h-118.7z" fill="none"/><use xlink:href="#bg" transform="matrix(1,0,0,1,2402.062601856592,1145.495372351416) translate(6.499999999999993 22.233333333333334)"/><use xlink:href="#bh" transform="matrix(1,0,0,1,2402.062601856592,1145.495372351416) translate(41.981481481481474 22.233333333333334)"/><use xlink:href="#bi" transform="matrix(1,0,0,1,2402.062601856592,1145.495372351416) translate(41.79629629629629 57.43333333333334)"/></g><path d="M2016.65 1020.77v-13.33l-100-13.34v13.34l33.33 6.66-33.33 6.67v13.33z" stroke="#3d4752" stroke-width="4" fill="#fff" filter="url(#aD)"/><g filter="url(#aZ)"><path d="M2024.63 996.75h84.63v37.35h-84.63z" fill="none"/><use xlink:href="#bk" transform="matrix(1,0,0,1,2024.627701432007,996.7534740391753) translate(3.2777777777777715 24.333333333333336)"/></g><path d="M1896.65 688.64h260v80h-260z" stroke="#3d4752" stroke-width="4" fill="#fff" filter="url(#aG)"/><path d="M2016.65 735.3V722l-100-13.34v13.34l33.33 6.66-33.33 6.67v13.34z" stroke="#3d4752" stroke-width="4" fill="#fff" filter="url(#aD)"/><g filter="url(#aU)"><path d="M2019.3 713.1h128.28v35.54h-128.3z" fill="none"/><use xlink:href="#bl" transform="matrix(1,0,0,1,2019.2852444122648,713.107014354672) translate(38.61111111111111 23.333333333333336)"/></g><path d="M2158.65 728.64h221.94" stroke="#494949" stroke-width="4" fill="none"/><path d="M2158.65 730.64h-2v-4h2z" fill="#494949"/><path d="M2395.6 728.64l-14.28 4.64V724z" stroke="#494949" stroke-width="4" fill="#494949"/><g filter="url(#bm)"><path d="M2402.06 694.18h95.3v68.93h-95.3z" fill="none"/><use xlink:href="#bg" transform="matrix(1,0,0,1,2402.062601856592,694.1754158835655) translate(15.444444444444443 22.233333333333334)"/><use xlink:href="#bn" transform="matrix(1,0,0,1,2402.062601856592,694.1754158835655) translate(50.925925925925924 22.233333333333334)"/><use xlink:href="#bi" transform="matrix(1,0,0,1,2402.062601856592,694.1754158835655) translate(30.296296296296294 57.43333333333334)"/></g><path d="M1838.23 869.7h34.95v4h-38.95v-27.54h4zm0-55.54h-4V790.6h-56.42v-4h60.43zM1888.18 871.7l-14.27 4.65v-9.27z" fill="#494949"/><path d="M1894.65 871.7l-22.74 7.4v-14.78zm-18.74 1.9l5.8-1.9-5.8-1.87zM1777.8 790.6h-2v-4h2z" fill="#494949"/><use xlink:href="#bo" transform="matrix(1,0,0,1,1822.1561485982013,814.1592797783958) translate(0.005000000000000782 21.333333333333336)"/><path d="M1838.23 726.64h34.95v4h-38.95v-9.13h4zm-60.42-25.28v-4h44.36v4zM1777.8 701.36h-2v-4h2zM1888.18 728.64l-14.27 4.64V724z" fill="#494949"/><path d="M1894.65 728.64l-22.74 7.4v-14.78zm-18.74 1.9l5.8-1.9-5.8-1.88z" fill="#494949"/><use xlink:href="#bo" transform="matrix(1,0,0,1,1822.1561485982013,689.505540166207) translate(0.005000000000000782 21.333333333333336)"/><path d="M1822.16 624.4h-44.35v-4h44.36zm51.02 0h-22.88v-4h22.88zM1777.8 624.4h-2v-4h2zM1888.18 622.4l-14.27 4.64v-9.27z" fill="#494949"/><path d="M1894.65 622.4l-22.74 7.4V615zm-18.74 1.9l5.8-1.9-5.8-1.88z" fill="#494949"/><use xlink:href="#bo" transform="matrix(1,0,0,1,1822.1561485982013,606.4030470914146) translate(0.005000000000000782 21.333333333333336)"/><path d="M1838.23 1177.43h34.95v4h-38.95v-85.06h4zm0-113.06h-4V983.3h-56.42v-4h60.43zM1777.8 983.3h-2v-4h2zM1888.18 1179.43l-14.27 4.64v-9.27z" fill="#494949"/><path d="M1894.65 1179.43l-22.74 7.4v-14.78zm-18.74 1.9l5.8-1.9-5.8-1.88z" fill="#494949"/><use xlink:href="#bp" transform="matrix(1,0,0,1,1822.1561485982013,1064.3730032753642) translate(0.005000000000000782 21.333333333333336)"/><path d="M2158.65 618.64h79.4V553h-341.4v-95.77h18.53" stroke="#494949" stroke-width="4" fill="none"/><path d="M2158.65 620.64h-2v-4h2z" fill="#494949"/><path d="M1930.18 457.23l-14.27 4.63v-9.27z" stroke="#494949" stroke-width="4" fill="#494949"/><defs><path fill="#3d4752" d="M233-177c-1 41-23 64-60 70L243 0h-38l-65-103H63V0H30v-248c88 3 205-21 203 71zM63-129c60-2 137 13 137-47 0-61-80-42-137-45v92" id="bq"/><path fill="#3d4752" d="M140-251c81 0 123 46 123 126C263-46 219 4 140 4 59 4 17-45 17-125s42-126 123-126zm0 227c63 0 89-41 89-101s-29-99-89-99c-61 0-89 39-89 99S79-25 140-24" id="br"/><path fill="#3d4752" d="M160-131c35 5 61 23 61 61C221 17 115-2 30 0v-248c76 3 177-17 177 60 0 33-19 50-47 57zm-97-11c50-1 110 9 110-42 0-47-63-36-110-37v79zm0 115c55-2 124 14 124-45 0-56-70-42-124-44v89" id="bs"/><g id="b"><use transform="matrix(0.07407407407407408,0,0,0.07407407407407408,0,0)" xlink:href="#bq"/><use transform="matrix(0.07407407407407408,0,0,0.07407407407407408,19.185185185185187,0)" xlink:href="#br"/><use transform="matrix(0.07407407407407408,0,0,0.07407407407407408,39.92592592592593,0)" xlink:href="#bs"/></g><filter id="a" filterUnits="objectBoundingBox" x="-.1" y="-.08" width="1.2" height="1.39"><feOffset result="offOut" in="SourceAlpha" dy="6"/><feGaussianBlur result="blurOut" in="offOut" stdDeviation="5"/><feColorMatrix result="colorOut" in="blurOut" values="0 0 0 0 0 0 0 0 0 0 0 0 0 0 0 0 0 0 0.16862745098039217 0"/><feBlend in="SourceGraphic" in2="colorOut"/></filter><path fill="#3d4752" d="M212-179c-10-28-35-45-73-45-59 0-87 40-87 99 0 60 29 101 89 101 43 0 62-24 78-52l27 14C228-24 195 4 139 4 59 4 22-46 18-125c-6-104 99-153 187-111 19 9 31 26 39 46" id="bt"/><path fill="#3d4752" d="M100-194c62-1 85 37 85 99 1 63-27 99-86 99S16-35 15-95c0-66 28-99 85-99zM99-20c44 1 53-31 53-75 0-43-8-75-51-75s-53 32-53 75 10 74 51 75" id="bu"/><path fill="#3d4752" d="M210-169c-67 3-38 105-44 169h-31v-121c0-29-5-50-35-48C34-165 62-65 56 0H25l-1-190h30c1 10-1 24 2 32 10-44 99-50 107 0 11-21 27-35 58-36 85-2 47 119 55 194h-31v-121c0-29-5-49-35-48" id="bv"/><path fill="#3d4752" d="M24-231v-30h32v30H24zM24 0v-190h32V0H24" id="bw"/><path fill="#3d4752" d="M59-47c-2 24 18 29 38 22v24C64 9 27 4 27-40v-127H5v-23h24l9-43h21v43h35v23H59v120" id="bx"/><g id="d"><use transform="matrix(0.07407407407407408,0,0,0.07407407407407408,0,0)" xlink:href="#bt"/><use transform="matrix(0.07407407407407408,0,0,0.07407407407407408,19.185185185185187,0)" xlink:href="#bu"/><use transform="matrix(0.07407407407407408,0,0,0.07407407407407408,34,0)" xlink:href="#bv"/><use transform="matrix(0.07407407407407408,0,0,0.07407407407407408,56.14814814814815,0)" xlink:href="#bv"/><use transform="matrix(0.07407407407407408,0,0,0.07407407407407408,78.2962962962963,0)" xlink:href="#bw"/><use transform="matrix(0.07407407407407408,0,0,0.07407407407407408,84.14814814814815,0)" xlink:href="#bx"/></g><filter id="c" filterUnits="objectBoundingBox" x="-.09" y="-.09" width="1.17" height="1.45"><feOffset result="offOut" in="SourceAlpha" dy="6"/><feGaussianBlur result="blurOut" in="offOut" stdDeviation="5"/><feColorMatrix result="colorOut" in="blurOut" values="0 0 0 0 0 0 0 0 0 0 0 0 0 0 0 0 0 0 0.16862745098039217 0"/><feBlend in="SourceGraphic" in2="colorOut"/></filter><path fill="#3d4752" d="M33 0v-248h34V0H33" id="by"/><path fill="#3d4752" d="M194-70c0 46-34 64-81 66v29H91V-4C42-5 12-27 4-67l30-6c5 28 25 41 57 43v-87c-38-9-76-20-76-67 1-42 33-58 76-59v-23h22v23c45 0 67 20 76 56l-31 6c-5-23-18-35-45-37v78c41 10 81 20 81 70zm-81 41c51 7 71-66 19-77-6-2-12-4-19-6v83zM91-219c-47-6-63 57-18 69 6 2 12 3 18 5v-74" id="bz"/><g id="f"><use transform="matrix(0.07407407407407408,0,0,0.07407407407407408,0,0)" xlink:href="#by"/><use transform="matrix(0.07407407407407408,0,0,0.07407407407407408,7.407407407407408,0)" xlink:href="#bz"/></g><filter id="e" filterUnits="objectBoundingBox" x="-.1" y="-.13" width="1.19" height="1.66"><feOffset result="offOut" in="SourceAlpha" dy="6"/><feGaussianBlur result="blurOut" in="offOut" stdDeviation="5"/><feColorMatrix result="colorOut" in="blurOut" values="0 0 0 0 0 0 0 0 0 0 0 0 0 0 0 0 0 0 0.16862745098039217 0"/><feBlend in="SourceGraphic" in2="colorOut"/></filter><path fill="#3d4752" d="M100-194c63 0 86 42 84 106H49c0 40 14 67 53 68 26 1 43-12 49-29l28 8c-11 28-37 45-77 45C44 4 14-33 15-96c1-61 26-98 85-98zm52 81c6-60-76-77-97-28-3 7-6 17-6 28h103" id="bA"/><path fill="#3d4752" d="M117-194c89-4 53 116 60 194h-32v-121c0-31-8-49-39-48C34-167 62-67 57 0H25l-1-190h30c1 10-1 24 2 32 11-22 29-35 61-36" id="bB"/><path fill="#3d4752" d="M141-36C126-15 110 5 73 4 37 3 15-17 15-53c-1-64 63-63 125-63 3-35-9-54-41-54-24 1-41 7-42 31l-33-3c5-37 33-52 76-52 45 0 72 20 72 64v82c-1 20 7 32 28 27v20c-31 9-61-2-59-35zM48-53c0 20 12 33 32 33 41-3 63-29 60-74-43 2-92-5-92 41" id="bC"/><g id="h"><use transform="matrix(0.08641975308641976,0,0,0.08641975308641976,0,0)" xlink:href="#bq"/><use transform="matrix(0.08641975308641976,0,0,0.08641975308641976,22.38271604938272,0)" xlink:href="#bA"/><use transform="matrix(0.08641975308641976,0,0,0.08641975308641976,39.66666666666667,0)" xlink:href="#bB"/><use transform="matrix(0.08641975308641976,0,0,0.08641975308641976,56.95061728395062,0)" xlink:href="#bC"/><use transform="matrix(0.08641975308641976,0,0,0.08641975308641976,74.23456790123457,0)" xlink:href="#bv"/><use transform="matrix(0.08641975308641976,0,0,0.08641975308641976,100.07407407407409,0)" xlink:href="#bA"/></g><path fill="#3d4752" d="M85-194c31 0 48 13 60 33l-1-100h32l1 261h-30c-2-10 0-23-3-31C134-8 116 4 85 4 32 4 16-35 15-94c0-66 23-100 70-100zm9 24c-40 0-46 34-46 75 0 40 6 74 45 74 42 0 51-32 51-76 0-42-9-74-50-73" id="bD"/><g id="i"><use transform="matrix(0.08641975308641976,0,0,0.08641975308641976,0,0)" xlink:href="#bC"/><use transform="matrix(0.08641975308641976,0,0,0.08641975308641976,17.283950617283953,0)" xlink:href="#bB"/><use transform="matrix(0.08641975308641976,0,0,0.08641975308641976,34.567901234567906,0)" xlink:href="#bD"/></g><path fill="#3d4752" d="M30-248c118-7 216 8 213 122C240-48 200 0 122 0H30v-248zM63-27c89 8 146-16 146-99s-60-101-146-95v194" id="bE"/><path fill="#3d4752" d="M135-143c-3-34-86-38-87 0 15 53 115 12 119 90S17 21 10-45l28-5c4 36 97 45 98 0-10-56-113-15-118-90-4-57 82-63 122-42 12 7 21 19 24 35" id="bF"/><path fill="#3d4752" d="M115-194c55 1 70 41 70 98S169 2 115 4C84 4 66-9 55-30l1 105H24l-1-265h31l2 30c10-21 28-34 59-34zm-8 174c40 0 45-34 45-75s-6-73-45-74c-42 0-51 32-51 76 0 43 10 73 51 73" id="bG"/><path fill="#3d4752" d="M96-169c-40 0-48 33-48 73s9 75 48 75c24 0 41-14 43-38l32 2c-6 37-31 61-74 61-59 0-76-41-82-99-10-93 101-131 147-64 4 7 5 14 7 22l-32 3c-4-21-16-35-41-35" id="bH"/><path fill="#3d4752" d="M106-169C34-169 62-67 57 0H25v-261h32l-1 103c12-21 28-36 61-36 89 0 53 116 60 194h-32v-121c2-32-8-49-39-48" id="bI"/><g id="j"><use transform="matrix(0.08641975308641976,0,0,0.08641975308641976,0,0)" xlink:href="#bE"/><use transform="matrix(0.08641975308641976,0,0,0.08641975308641976,22.38271604938272,0)" xlink:href="#bw"/><use transform="matrix(0.08641975308641976,0,0,0.08641975308641976,29.20987654320988,0)" xlink:href="#bF"/><use transform="matrix(0.08641975308641976,0,0,0.08641975308641976,44.76543209876544,0)" xlink:href="#bG"/><use transform="matrix(0.08641975308641976,0,0,0.08641975308641976,62.04938271604939,0)" xlink:href="#bC"/><use transform="matrix(0.08641975308641976,0,0,0.08641975308641976,79.33333333333334,0)" xlink:href="#bx"/><use transform="matrix(0.08641975308641976,0,0,0.08641975308641976,87.97530864197532,0)" xlink:href="#bH"/><use transform="matrix(0.08641975308641976,0,0,0.08641975308641976,103.53086419753087,0)" xlink:href="#bI"/></g><filter id="g" filterUnits="objectBoundingBox" x="-.06" y="-.07" width="1.12" height="1.33"><feOffset result="offOut" in="SourceAlpha" dy="6"/><feGaussianBlur result="blurOut" in="offOut" stdDeviation="5"/><feColorMatrix result="colorOut" in="blurOut" values="0 0 0 0 0 0 0 0 0 0 0 0 0 0 0 0 0 0 0.16862745098039217 0"/><feBlend in="SourceGraphic" in2="colorOut"/></filter><path fill="#3d4752" d="M143 0L79-87 56-68V0H24v-261h32v163l83-92h37l-77 82L181 0h-38" id="bJ"/><path fill="#3d4752" d="M177-190C167-65 218 103 67 71c-23-6-38-20-44-43l32-5c15 47 100 32 89-28v-30C133-14 115 1 83 1 29 1 15-40 15-95c0-56 16-97 71-98 29-1 48 16 59 35 1-10 0-23 2-32h30zM94-22c36 0 50-32 50-73 0-42-14-75-50-75-39 0-46 34-46 75s6 73 46 73" id="bK"/><g id="l"><use transform="matrix(0.07407407407407408,0,0,0.07407407407407408,0,0)" xlink:href="#bs"/><use transform="matrix(0.07407407407407408,0,0,0.07407407407407408,17.77777777777778,0)" xlink:href="#bC"/><use transform="matrix(0.07407407407407408,0,0,0.07407407407407408,32.592592592592595,0)" xlink:href="#bH"/><use transform="matrix(0.07407407407407408,0,0,0.07407407407407408,45.92592592592593,0)" xlink:href="#bJ"/><use transform="matrix(0.07407407407407408,0,0,0.07407407407407408,59.25925925925927,0)" xlink:href="#bw"/><use transform="matrix(0.07407407407407408,0,0,0.07407407407407408,65.11111111111111,0)" xlink:href="#bB"/><use transform="matrix(0.07407407407407408,0,0,0.07407407407407408,79.92592592592592,0)" xlink:href="#bK"/></g><path fill="#3d4752" d="M30-248c87 1 191-15 191 75 0 78-77 80-158 76V0H30v-248zm33 125c57 0 124 11 124-50 0-59-68-47-124-48v98" id="bL"/><path fill="#3d4752" d="M114-163C36-179 61-72 57 0H25l-1-190h30c1 12-1 29 2 39 6-27 23-49 58-41v29" id="bM"/><g id="m"><use transform="matrix(0.07407407407407408,0,0,0.07407407407407408,0,0)" xlink:href="#bL"/><use transform="matrix(0.07407407407407408,0,0,0.07407407407407408,17.77777777777778,0)" xlink:href="#bM"/><use transform="matrix(0.07407407407407408,0,0,0.07407407407407408,26.592592592592595,0)" xlink:href="#bA"/><use transform="matrix(0.07407407407407408,0,0,0.07407407407407408,41.40740740740741,0)" xlink:href="#bD"/><use transform="matrix(0.07407407407407408,0,0,0.07407407407407408,56.22222222222223,0)" xlink:href="#bw"/><use transform="matrix(0.07407407407407408,0,0,0.07407407407407408,62.07407407407408,0)" xlink:href="#bH"/><use transform="matrix(0.07407407407407408,0,0,0.07407407407407408,75.40740740740742,0)" xlink:href="#bx"/><use transform="matrix(0.07407407407407408,0,0,0.07407407407407408,82.81481481481482,0)" xlink:href="#bu"/><use transform="matrix(0.07407407407407408,0,0,0.07407407407407408,97.62962962962965,0)" xlink:href="#bM"/></g><filter id="k" filterUnits="objectBoundingBox" x="-.08" y="-.06" width="1.16" height="1.29"><feOffset result="offOut" in="SourceAlpha" dy="6"/><feGaussianBlur result="blurOut" in="offOut" stdDeviation="5"/><feColorMatrix result="colorOut" in="blurOut" values="0 0 0 0 0 0 0 0 0 0 0 0 0 0 0 0 0 0 0.16862745098039217 0"/><feBlend in="SourceGraphic" in2="colorOut"/></filter><path fill="#3d4752" d="M84 4C-5 8 30-112 23-190h32v120c0 31 7 50 39 49 72-2 45-101 50-169h31l1 190h-30c-1-10 1-25-2-33-11 22-28 36-60 37" id="bN"/><g id="o"><use transform="matrix(0.08641975308641976,0,0,0.08641975308641976,0,0)" xlink:href="#by"/><use transform="matrix(0.08641975308641976,0,0,0.08641975308641976,8.641975308641976,0)" xlink:href="#bF"/><use transform="matrix(0.08641975308641976,0,0,0.08641975308641976,24.19753086419753,0)" xlink:href="#bF"/><use transform="matrix(0.08641975308641976,0,0,0.08641975308641976,39.75308641975309,0)" xlink:href="#bN"/><use transform="matrix(0.08641975308641976,0,0,0.08641975308641976,57.03703703703703,0)" xlink:href="#bA"/></g><filter id="n" filterUnits="objectBoundingBox" x="-.1" y="-.07" width="1.2" height="1.33"><feOffset result="offOut" in="SourceAlpha" dy="6"/><feGaussianBlur result="blurOut" in="offOut" stdDeviation="5"/><feColorMatrix result="colorOut" in="blurOut" values="0 0 0 0 0 0 0 0 0 0 0 0 0 0 0 0 0 0 0.16862745098039217 0"/><feBlend in="SourceGraphic" in2="colorOut"/></filter><path fill="#3d4752" d="M266 0h-40l-56-210L115 0H75L2-248h35L96-30l15-64 43-154h32l59 218 59-218h35" id="bO"/><path fill="#3d4752" d="M115-194c53 0 69 39 70 98 0 66-23 100-70 100C84 3 66-7 56-30L54 0H23l1-261h32v101c10-23 28-34 59-34zm-8 174c40 0 45-34 45-75 0-40-5-75-45-74-42 0-51 32-51 76 0 43 10 73 51 73" id="bP"/><path fill="#3d4752" d="M68-38c1 34 0 65-14 84H32c9-13 17-26 17-46H33v-38h35" id="bQ"/><g id="q"><use transform="matrix(0.06172839506172839,0,0,0.06172839506172839,0,0)" xlink:href="#bO"/><use transform="matrix(0.06172839506172839,0,0,0.06172839506172839,20.493827160493826,0)" xlink:href="#bM"/><use transform="matrix(0.06172839506172839,0,0,0.06172839506172839,27.839506172839506,0)" xlink:href="#bw"/><use transform="matrix(0.06172839506172839,0,0,0.06172839506172839,32.71604938271605,0)" xlink:href="#bx"/><use transform="matrix(0.06172839506172839,0,0,0.06172839506172839,38.88888888888889,0)" xlink:href="#bA"/><use transform="matrix(0.06172839506172839,0,0,0.06172839506172839,51.23456790123457,0)" xlink:href="#bP"/><use transform="matrix(0.06172839506172839,0,0,0.06172839506172839,63.58024691358025,0)" xlink:href="#bC"/><use transform="matrix(0.06172839506172839,0,0,0.06172839506172839,75.92592592592592,0)" xlink:href="#bH"/><use transform="matrix(0.06172839506172839,0,0,0.06172839506172839,87.03703703703704,0)" xlink:href="#bJ"/><use transform="matrix(0.06172839506172839,0,0,0.06172839506172839,98.14814814814815,0)" xlink:href="#bF"/><use transform="matrix(0.06172839506172839,0,0,0.06172839506172839,109.25925925925927,0)" xlink:href="#bQ"/></g><g id="r"><use transform="matrix(0.06172839506172839,0,0,0.06172839506172839,0,0)" xlink:href="#bO"/><use transform="matrix(0.06172839506172839,0,0,0.06172839506172839,20.123456790123456,0)" xlink:href="#bC"/><use transform="matrix(0.06172839506172839,0,0,0.06172839506172839,32.46913580246913,0)" xlink:href="#bJ"/><use transform="matrix(0.06172839506172839,0,0,0.06172839506172839,43.58024691358024,0)" xlink:href="#bA"/><use transform="matrix(0.06172839506172839,0,0,0.06172839506172839,55.92592592592592,0)" xlink:href="#bN"/><use transform="matrix(0.06172839506172839,0,0,0.06172839506172839,68.2716049382716,0)" xlink:href="#bG"/><use transform="matrix(0.06172839506172839,0,0,0.06172839506172839,80.61728395061728,0)" xlink:href="#bF"/><use transform="matrix(0.06172839506172839,0,0,0.06172839506172839,91.72839506172839,0)" xlink:href="#bQ"/></g><g id="s"><use transform="matrix(0.06172839506172839,0,0,0.06172839506172839,0,0)" xlink:href="#bC"/><use transform="matrix(0.06172839506172839,0,0,0.06172839506172839,12.345679012345679,0)" xlink:href="#bB"/><use transform="matrix(0.06172839506172839,0,0,0.06172839506172839,24.691358024691358,0)" xlink:href="#bD"/></g><g id="t"><use transform="matrix(0.06172839506172839,0,0,0.06172839506172839,0,0)" xlink:href="#bv"/><use transform="matrix(0.06172839506172839,0,0,0.06172839506172839,18.456790123456788,0)" xlink:href="#bu"/><use transform="matrix(0.06172839506172839,0,0,0.06172839506172839,30.80246913580247,0)" xlink:href="#bM"/><use transform="matrix(0.06172839506172839,0,0,0.06172839506172839,38.148148148148145,0)" xlink:href="#bA"/></g><filter id="p" filterUnits="objectBoundingBox" x="-.04" y="-.06" width="1.09" height="1.28"><feOffset result="offOut" in="SourceAlpha" dy="6"/><feGaussianBlur result="blurOut" in="offOut" stdDeviation="5"/><feColorMatrix result="colorOut" in="blurOut" values="0 0 0 0 0 0 0 0 0 0 0 0 0 0 0 0 0 0 0.16862745098039217 0"/><feBlend in="SourceGraphic" in2="colorOut"/></filter><path fill="#3d4752" d="M63-220v92h138v28H63V0H30v-248h175v28H63" id="bR"/><g id="v"><use transform="matrix(0.08641975308641976,0,0,0.08641975308641976,0,0)" xlink:href="#bR"/><use transform="matrix(0.08641975308641976,0,0,0.08641975308641976,18.925925925925927,0)" xlink:href="#bA"/><use transform="matrix(0.08641975308641976,0,0,0.08641975308641976,36.20987654320988,0)" xlink:href="#bx"/><use transform="matrix(0.08641975308641976,0,0,0.08641975308641976,44.851851851851855,0)" xlink:href="#bH"/><use transform="matrix(0.08641975308641976,0,0,0.08641975308641976,60.40740740740741,0)" xlink:href="#bI"/></g><path fill="#3d4752" d="M87 75C49 33 22-17 22-94c0-76 28-126 65-167h31c-38 41-64 92-64 168S80 34 118 75H87" id="bS"/><path fill="#3d4752" d="M155-56V0h-30v-56H8v-25l114-167h33v167h35v25h-35zm-30-156c-27 46-58 90-88 131h88v-131" id="bT"/><g id="w"><use transform="matrix(0.08641975308641976,0,0,0.08641975308641976,0,0)" xlink:href="#bS"/><use transform="matrix(0.08641975308641976,0,0,0.08641975308641976,10.283950617283951,0)" xlink:href="#bT"/></g><path fill="#3d4752" d="M179-190L93 31C79 59 56 82 12 73V49c39 6 53-20 64-50L1-190h34L92-34l54-156h33" id="bU"/><path fill="#3d4752" d="M24 0v-261h32V0H24" id="bV"/><path fill="#3d4752" d="M33-261c38 41 65 92 65 168S71 34 33 75H2C39 34 66-17 66-93S39-220 2-261h31" id="bW"/><g id="x"><use transform="matrix(0.08641975308641976,0,0,0.08641975308641976,0,0)" xlink:href="#bH"/><use transform="matrix(0.08641975308641976,0,0,0.08641975308641976,15.555555555555557,0)" xlink:href="#bU"/><use transform="matrix(0.08641975308641976,0,0,0.08641975308641976,31.111111111111114,0)" xlink:href="#bH"/><use transform="matrix(0.08641975308641976,0,0,0.08641975308641976,46.66666666666667,0)" xlink:href="#bV"/><use transform="matrix(0.08641975308641976,0,0,0.08641975308641976,53.49382716049383,0)" xlink:href="#bA"/><use transform="matrix(0.08641975308641976,0,0,0.08641975308641976,70.77777777777779,0)" xlink:href="#bF"/><use transform="matrix(0.08641975308641976,0,0,0.08641975308641976,86.33333333333334,0)" xlink:href="#bW"/></g><filter id="u" filterUnits="objectBoundingBox" x="-.04" y="-.07" width="1.08" height="1.33"><feOffset result="offOut" in="SourceAlpha" dy="6"/><feGaussianBlur result="blurOut" in="offOut" stdDeviation="5"/><feColorMatrix result="colorOut" in="blurOut" values="0 0 0 0 0 0 0 0 0 0 0 0 0 0 0 0 0 0 0.16862745098039217 0"/><feBlend in="SourceGraphic" in2="colorOut"/></filter><g id="z"><use transform="matrix(0.08641975308641976,0,0,0.08641975308641976,0,0)" xlink:href="#bE"/><use transform="matrix(0.08641975308641976,0,0,0.08641975308641976,22.38271604938272,0)" xlink:href="#bA"/><use transform="matrix(0.08641975308641976,0,0,0.08641975308641976,39.66666666666667,0)" xlink:href="#bH"/><use transform="matrix(0.08641975308641976,0,0,0.08641975308641976,55.22222222222223,0)" xlink:href="#bu"/><use transform="matrix(0.08641975308641976,0,0,0.08641975308641976,72.50617283950618,0)" xlink:href="#bD"/><use transform="matrix(0.08641975308641976,0,0,0.08641975308641976,89.79012345679013,0)" xlink:href="#bA"/></g><g id="A"><use transform="matrix(0.08641975308641976,0,0,0.08641975308641976,0,0)" xlink:href="#bq"/><use transform="matrix(0.08641975308641976,0,0,0.08641975308641976,22.38271604938272,0)" xlink:href="#bA"/><use transform="matrix(0.08641975308641976,0,0,0.08641975308641976,39.66666666666667,0)" xlink:href="#bB"/><use transform="matrix(0.08641975308641976,0,0,0.08641975308641976,56.95061728395062,0)" xlink:href="#bC"/><use transform="matrix(0.08641975308641976,0,0,0.08641975308641976,74.23456790123457,0)" xlink:href="#bv"/><use transform="matrix(0.08641975308641976,0,0,0.08641975308641976,100.07407407407409,0)" xlink:href="#bA"/></g><filter id="y" filterUnits="objectBoundingBox" x="-.06" y="-.07" width="1.12" height="1.33"><feOffset result="offOut" in="SourceAlpha" dy="6"/><feGaussianBlur result="blurOut" in="offOut" stdDeviation="5"/><feColorMatrix result="colorOut" in="blurOut" values="0 0 0 0 0 0 0 0 0 0 0 0 0 0 0 0 0 0 0.16862745098039217 0"/><feBlend in="SourceGraphic" in2="colorOut"/></filter><g id="C"><use transform="matrix(0.06172839506172839,0,0,0.06172839506172839,0,0)" xlink:href="#bN"/><use transform="matrix(0.06172839506172839,0,0,0.06172839506172839,12.345679012345679,0)" xlink:href="#bu"/><use transform="matrix(0.06172839506172839,0,0,0.06172839506172839,24.691358024691358,0)" xlink:href="#bG"/></g><filter id="B" filterUnits="objectBoundingBox" x="-.23" y="-.05" width="1.47" height="1.27"><feOffset result="offOut" in="SourceAlpha" dy="6"/><feGaussianBlur result="blurOut" in="offOut" stdDeviation="5"/><feColorMatrix result="colorOut" in="blurOut" values="0 0 0 0 0 0 0 0 0 0 0 0 0 0 0 0 0 0 0.16862745098039217 0"/><feBlend in="SourceGraphic" in2="colorOut"/></filter><g id="D"><use transform="matrix(0.08641975308641976,0,0,0.08641975308641976,0,0)" xlink:href="#bq"/><use transform="matrix(0.08641975308641976,0,0,0.08641975308641976,22.38271604938272,0)" xlink:href="#bA"/><use transform="matrix(0.08641975308641976,0,0,0.08641975308641976,39.66666666666667,0)" xlink:href="#bK"/><use transform="matrix(0.08641975308641976,0,0,0.08641975308641976,56.95061728395062,0)" xlink:href="#bw"/><use transform="matrix(0.08641975308641976,0,0,0.08641975308641976,63.777777777777786,0)" xlink:href="#bF"/><use transform="matrix(0.08641975308641976,0,0,0.08641975308641976,79.33333333333334,0)" xlink:href="#bx"/><use transform="matrix(0.08641975308641976,0,0,0.08641975308641976,87.97530864197532,0)" xlink:href="#bA"/><use transform="matrix(0.08641975308641976,0,0,0.08641975308641976,105.25925925925927,0)" xlink:href="#bM"/></g><g id="E"><use transform="matrix(0.08641975308641976,0,0,0.08641975308641976,0,0)" xlink:href="#bq"/><use transform="matrix(0.08641975308641976,0,0,0.08641975308641976,22.38271604938272,0)" xlink:href="#bA"/><use transform="matrix(0.08641975308641976,0,0,0.08641975308641976,39.66666666666667,0)" xlink:href="#bC"/><use transform="matrix(0.08641975308641976,0,0,0.08641975308641976,56.95061728395062,0)" xlink:href="#bD"/></g><filter id="F" filterUnits="objectBoundingBox" x="-.34" y="-.04" width="1.69" height="1.18"><feOffset result="offOut" in="SourceAlpha" dy="6"/><feGaussianBlur result="blurOut" in="offOut" stdDeviation="5"/><feColorMatrix result="colorOut" in="blurOut" values="0 0 0 0 0 0 0 0 0 0 0 0 0 0 0 0 0 0 0.16862745098039217 0"/><feBlend in="SourceGraphic" in2="colorOut"/></filter><filter id="G" filterUnits="objectBoundingBox" x="-.36" y="-.05" width="1.72" height="1.23"><feOffset result="offOut" in="SourceAlpha" dy="6"/><feGaussianBlur result="blurOut" in="offOut" stdDeviation="5"/><feColorMatrix result="colorOut" in="blurOut" values="0 0 0 0 0 0 0 0 0 0 0 0 0 0 0 0 0 0 0.16862745098039217 0"/><feBlend in="SourceGraphic" in2="colorOut"/></filter><filter id="H" filterUnits="objectBoundingBox" x="-.54" y="-.28" width="2.08" height="2.41"><feOffset result="offOut" in="SourceAlpha" dy="6"/><feGaussianBlur result="blurOut" in="offOut" stdDeviation="5"/><feColorMatrix result="colorOut" in="blurOut" values="0 0 0 0 0 0 0 0 0 0 0 0 0 0 0 0 0 0 0.16862745098039217 0"/><feBlend in="SourceGraphic" in2="colorOut"/></filter><filter id="I" filterUnits="objectBoundingBox" x="-.5" y="-.07" width="2" height="1.33"><feOffset result="offOut" in="SourceAlpha" dy="6"/><feGaussianBlur result="blurOut" in="offOut" stdDeviation="5"/><feColorMatrix result="colorOut" in="blurOut" values="0 0 0 0 0 0 0 0 0 0 0 0 0 0 0 0 0 0 0.16862745098039217 0"/><feBlend in="SourceGraphic" in2="colorOut"/></filter><filter id="J" filterUnits="objectBoundingBox" x="-.04" y="-.01" width="1.08" height="1.06"><feOffset result="offOut" in="SourceAlpha" dy="6"/><feGaussianBlur result="blurOut" in="offOut" stdDeviation="5"/><feColorMatrix result="colorOut" in="blurOut" values="0 0 0 0 0 0 0 0 0 0 0 0 0 0 0 0 0 0 0.16862745098039217 0"/><feBlend in="SourceGraphic" in2="colorOut"/></filter><filter id="K" filterUnits="objectBoundingBox" x="-.04" y="-.02" width="1.08" height="1.12"><feOffset result="offOut" in="SourceAlpha" dy="6"/><feGaussianBlur result="blurOut" in="offOut" stdDeviation="5"/><feColorMatrix result="colorOut" in="blurOut" values="0 0 0 0 0 0 0 0 0 0 0 0 0 0 0 0 0 0 0.16862745098039217 0"/><feBlend in="SourceGraphic" in2="colorOut"/></filter><filter id="L" filterUnits="objectBoundingBox" x="-.1" y="-.03" width="1.19" height="1.13"><feOffset result="offOut" in="SourceAlpha" dy="6"/><feGaussianBlur result="blurOut" in="offOut" stdDeviation="5"/><feColorMatrix result="colorOut" in="blurOut" values="0 0 0 0 0 0 0 0 0 0 0 0 0 0 0 0 0 0 0.16862745098039217 0"/><feBlend in="SourceGraphic" in2="colorOut"/></filter><filter id="M" filterUnits="objectBoundingBox" x="-.14" y="-.04" width="1.29" height="1.18"><feOffset result="offOut" in="SourceAlpha" dy="6"/><feGaussianBlur result="blurOut" in="offOut" stdDeviation="5"/><feColorMatrix result="colorOut" in="blurOut" values="0 0 0 0 0 0 0 0 0 0 0 0 0 0 0 0 0 0 0.16862745098039217 0"/><feBlend in="SourceGraphic" in2="colorOut"/></filter><filter id="N" filterUnits="objectBoundingBox" x="-.5" y="-.05" width="2" height="1.25"><feOffset result="offOut" in="SourceAlpha" dy="6"/><feGaussianBlur result="blurOut" in="offOut" stdDeviation="5"/><feColorMatrix result="colorOut" in="blurOut" values="0 0 0 0 0 0 0 0 0 0 0 0 0 0 0 0 0 0 0.16862745098039217 0"/><feBlend in="SourceGraphic" in2="colorOut"/></filter><filter id="O" filterUnits="objectBoundingBox" x="-.1" y="-.03" width="1.2" height="1.17"><feOffset result="offOut" in="SourceAlpha" dy="6"/><feGaussianBlur result="blurOut" in="offOut" stdDeviation="5"/><feColorMatrix result="colorOut" in="blurOut" values="0 0 0 0 0 0 0 0 0 0 0 0 0 0 0 0 0 0 0.16862745098039217 0"/><feBlend in="SourceGraphic" in2="colorOut"/></filter><path fill="#3d4752" d="M127-220V0H93v-220H8v-28h204v28h-85" id="bX"/><g id="P"><use transform="matrix(0.07407407407407408,0,0,0.07407407407407408,0,0)" xlink:href="#bs"/><use transform="matrix(0.07407407407407408,0,0,0.07407407407407408,17.77777777777778,0)" xlink:href="#bX"/><use transform="matrix(0.07407407407407408,0,0,0.07407407407407408,34,0)" xlink:href="#bs"/></g><g id="R"><use transform="matrix(0.07407407407407408,0,0,0.07407407407407408,0,0)" xlink:href="#bs"/><use transform="matrix(0.07407407407407408,0,0,0.07407407407407408,17.77777777777778,0)" xlink:href="#bC"/><use transform="matrix(0.07407407407407408,0,0,0.07407407407407408,32.592592592592595,0)" xlink:href="#bH"/><use transform="matrix(0.07407407407407408,0,0,0.07407407407407408,45.92592592592593,0)" xlink:href="#bJ"/><use transform="matrix(0.07407407407407408,0,0,0.07407407407407408,59.25925925925927,0)" xlink:href="#bw"/><use transform="matrix(0.07407407407407408,0,0,0.07407407407407408,65.11111111111111,0)" xlink:href="#bB"/><use transform="matrix(0.07407407407407408,0,0,0.07407407407407408,79.92592592592592,0)" xlink:href="#bK"/></g><g id="S"><use transform="matrix(0.07407407407407408,0,0,0.07407407407407408,0,0)" xlink:href="#bL"/><use transform="matrix(0.07407407407407408,0,0,0.07407407407407408,17.77777777777778,0)" xlink:href="#bM"/><use transform="matrix(0.07407407407407408,0,0,0.07407407407407408,26.592592592592595,0)" xlink:href="#bA"/><use transform="matrix(0.07407407407407408,0,0,0.07407407407407408,41.40740740740741,0)" xlink:href="#bD"/><use transform="matrix(0.07407407407407408,0,0,0.07407407407407408,56.22222222222223,0)" xlink:href="#bw"/><use transform="matrix(0.07407407407407408,0,0,0.07407407407407408,62.07407407407408,0)" xlink:href="#bH"/><use transform="matrix(0.07407407407407408,0,0,0.07407407407407408,75.40740740740742,0)" xlink:href="#bx"/><use transform="matrix(0.07407407407407408,0,0,0.07407407407407408,82.81481481481482,0)" xlink:href="#bu"/><use transform="matrix(0.07407407407407408,0,0,0.07407407407407408,97.62962962962965,0)" xlink:href="#bM"/></g><filter id="Q" filterUnits="objectBoundingBox" x="-.06" y="-.06" width="1.12" height="1.31"><feOffset result="offOut" in="SourceAlpha" dy="6"/><feGaussianBlur result="blurOut" in="offOut" stdDeviation="5"/><feColorMatrix result="colorOut" in="blurOut" values="0 0 0 0 0 0 0 0 0 0 0 0 0 0 0 0 0 0 0.16862745098039217 0"/><feBlend in="SourceGraphic" in2="colorOut"/></filter><g id="U"><use transform="matrix(0.07407407407407408,0,0,0.07407407407407408,0,0)" xlink:href="#bR"/><use transform="matrix(0.07407407407407408,0,0,0.07407407407407408,16.222222222222225,0)" xlink:href="#bA"/><use transform="matrix(0.07407407407407408,0,0,0.07407407407407408,31.03703703703704,0)" xlink:href="#bx"/><use transform="matrix(0.07407407407407408,0,0,0.07407407407407408,38.44444444444445,0)" xlink:href="#bH"/><use transform="matrix(0.07407407407407408,0,0,0.07407407407407408,51.777777777777786,0)" xlink:href="#bI"/></g><path fill="#3d4752" d="M101-234c-31-9-42 10-38 44h38v23H63V0H32v-167H5v-23h27c-7-52 17-82 69-68v24" id="bY"/><g id="V"><use transform="matrix(0.07407407407407408,0,0,0.07407407407407408,0,0)" xlink:href="#bs"/><use transform="matrix(0.07407407407407408,0,0,0.07407407407407408,17.77777777777778,0)" xlink:href="#bN"/><use transform="matrix(0.07407407407407408,0,0,0.07407407407407408,32.592592592592595,0)" xlink:href="#bY"/><use transform="matrix(0.07407407407407408,0,0,0.07407407407407408,39.48148148148148,0)" xlink:href="#bY"/><use transform="matrix(0.07407407407407408,0,0,0.07407407407407408,46.888888888888886,0)" xlink:href="#bA"/><use transform="matrix(0.07407407407407408,0,0,0.07407407407407408,61.7037037037037,0)" xlink:href="#bM"/></g><filter id="T" filterUnits="objectBoundingBox" x="-.09" y="-.06" width="1.18" height="1.31"><feOffset result="offOut" in="SourceAlpha" dy="6"/><feGaussianBlur result="blurOut" in="offOut" stdDeviation="5"/><feColorMatrix result="colorOut" in="blurOut" values="0 0 0 0 0 0 0 0 0 0 0 0 0 0 0 0 0 0 0.16862745098039217 0"/><feBlend in="SourceGraphic" in2="colorOut"/></filter><path fill="#3d4752" d="M240 0l2-218c-23 76-54 145-80 218h-23L58-218 59 0H30v-248h44l77 211c21-75 51-140 76-211h43V0h-30" id="bZ"/><path fill="#3d4752" d="M33 0v-38h34V0H33" id="ca"/><g id="X"><use transform="matrix(0.07407407407407408,0,0,0.07407407407407408,0,0)" xlink:href="#bZ"/><use transform="matrix(0.07407407407407408,0,0,0.07407407407407408,22.148148148148152,0)" xlink:href="#bA"/><use transform="matrix(0.07407407407407408,0,0,0.07407407407407408,36.96296296296297,0)" xlink:href="#bv"/><use transform="matrix(0.07407407407407408,0,0,0.07407407407407408,59.11111111111112,0)" xlink:href="#ca"/></g><g id="Y"><use transform="matrix(0.07407407407407408,0,0,0.07407407407407408,0,0)" xlink:href="#by"/><use transform="matrix(0.07407407407407408,0,0,0.07407407407407408,7.407407407407408,0)" xlink:href="#bF"/><use transform="matrix(0.07407407407407408,0,0,0.07407407407407408,20.740740740740744,0)" xlink:href="#bF"/><use transform="matrix(0.07407407407407408,0,0,0.07407407407407408,34.074074074074076,0)" xlink:href="#bN"/><use transform="matrix(0.07407407407407408,0,0,0.07407407407407408,48.88888888888889,0)" xlink:href="#bA"/></g><path fill="#3d4752" d="M140-251c81 0 123 46 123 126C263-53 228-8 163 1c7 30 30 48 69 40v23c-55 16-95-15-103-61C56-3 17-48 17-125c0-80 42-126 123-126zm0 227c63 0 89-41 89-101s-29-99-89-99c-61 0-89 39-89 99S79-25 140-24" id="cb"/><g id="Z"><use transform="matrix(0.07407407407407408,0,0,0.07407407407407408,0,0)" xlink:href="#cb"/><use transform="matrix(0.07407407407407408,0,0,0.07407407407407408,20.740740740740744,0)" xlink:href="#bN"/><use transform="matrix(0.07407407407407408,0,0,0.07407407407407408,35.55555555555556,0)" xlink:href="#bA"/><use transform="matrix(0.07407407407407408,0,0,0.07407407407407408,50.370370370370374,0)" xlink:href="#bN"/><use transform="matrix(0.07407407407407408,0,0,0.07407407407407408,65.18518518518519,0)" xlink:href="#bA"/></g><filter id="W" filterUnits="objectBoundingBox" x="-.04" y="-.1" width="1.08" height="1.5"><feOffset result="offOut" in="SourceAlpha" dy="6"/><feGaussianBlur result="blurOut" in="offOut" stdDeviation="5"/><feColorMatrix result="colorOut" in="blurOut" values="0 0 0 0 0 0 0 0 0 0 0 0 0 0 0 0 0 0 0.16862745098039217 0"/><feBlend in="SourceGraphic" in2="colorOut"/></filter><path fill="#3d4752" d="M205 0l-28-72H64L36 0H1l101-248h38L239 0h-34zm-38-99l-47-123c-12 45-31 82-46 123h93" id="cc"/><path fill="#3d4752" d="M30 0v-248h33v221h125V0H30" id="cd"/><path fill="#3d4752" d="M232-93c-1 65-40 97-104 97C67 4 28-28 28-90v-158h33c8 89-33 224 67 224 102 0 64-133 71-224h33v155" id="ce"/><g id="aa"><use transform="matrix(0.07407407407407408,0,0,0.07407407407407408,0,0)" xlink:href="#cc"/><use transform="matrix(0.07407407407407408,0,0,0.07407407407407408,17.77777777777778,0)" xlink:href="#cd"/><use transform="matrix(0.07407407407407408,0,0,0.07407407407407408,32.592592592592595,0)" xlink:href="#ce"/></g><g id="ab"><use transform="matrix(0.07407407407407408,0,0,0.07407407407407408,0,0)" xlink:href="#bR"/><use transform="matrix(0.07407407407407408,0,0,0.07407407407407408,16.222222222222225,0)" xlink:href="#bL"/></g><g id="ad"><use transform="matrix(0.07407407407407408,0,0,0.07407407407407408,0,0)" xlink:href="#bL"/><use transform="matrix(0.07407407407407408,0,0,0.07407407407407408,17.77777777777778,0)" xlink:href="#bI"/><use transform="matrix(0.07407407407407408,0,0,0.07407407407407408,32.592592592592595,0)" xlink:href="#bU"/><use transform="matrix(0.07407407407407408,0,0,0.07407407407407408,45.92592592592593,0)" xlink:href="#bF"/><use transform="matrix(0.07407407407407408,0,0,0.07407407407407408,59.25925925925927,0)" xlink:href="#bw"/><use transform="matrix(0.07407407407407408,0,0,0.07407407407407408,65.11111111111111,0)" xlink:href="#bH"/><use transform="matrix(0.07407407407407408,0,0,0.07407407407407408,78.44444444444446,0)" xlink:href="#bC"/><use transform="matrix(0.07407407407407408,0,0,0.07407407407407408,93.25925925925927,0)" xlink:href="#bV"/></g><path fill="#3d4752" d="M190 0L58-211 59 0H30v-248h39L202-35l-2-213h31V0h-41" id="cf"/><g id="ae"><use transform="matrix(0.07407407407407408,0,0,0.07407407407407408,0,0)" xlink:href="#by"/><use transform="matrix(0.07407407407407408,0,0,0.07407407407407408,7.407407407407408,0)" xlink:href="#cf"/><use transform="matrix(0.07407407407407408,0,0,0.07407407407407408,26.592592592592595,0)" xlink:href="#bX"/></g><g id="af"><use transform="matrix(0.07407407407407408,0,0,0.07407407407407408,0,0)" xlink:href="#bq"/><use transform="matrix(0.07407407407407408,0,0,0.07407407407407408,19.185185185185187,0)" xlink:href="#bR"/></g><path fill="#3d4752" d="M110-160c48 1 74 30 74 79 0 53-28 85-80 85-65 0-83-55-86-122-5-90 50-162 133-122 14 7 22 21 27 39l-31 6c-5-40-67-38-82-6-9 19-15 44-15 74 11-20 30-34 60-33zm-7 138c34 0 49-23 49-58s-16-56-50-56c-29 0-50 16-49 49 1 36 15 65 50 65" id="cg"/><path fill="#3d4752" d="M126-127c33 6 58 20 58 59 0 88-139 92-164 29-3-8-5-16-6-25l32-3c6 27 21 44 54 44 32 0 52-15 52-46 0-38-36-46-79-43v-28c39 1 72-4 72-42 0-27-17-43-46-43-28 0-47 15-49 41l-32-3c6-42 35-63 81-64 48-1 79 21 79 65 0 36-21 52-52 59" id="ch"/><g id="ag"><use transform="matrix(0.07407407407407408,0,0,0.07407407407407408,0,0)" xlink:href="#bS"/><use transform="matrix(0.07407407407407408,0,0,0.07407407407407408,8.814814814814817,0)" xlink:href="#cg"/><use transform="matrix(0.07407407407407408,0,0,0.07407407407407408,23.629629629629633,0)" xlink:href="#bq"/><use transform="matrix(0.07407407407407408,0,0,0.07407407407407408,42.814814814814824,0)" xlink:href="#ch"/><use transform="matrix(0.07407407407407408,0,0,0.07407407407407408,57.62962962962964,0)" xlink:href="#bO"/><use transform="matrix(0.07407407407407408,0,0,0.07407407407407408,82.74074074074076,0)" xlink:href="#bW"/></g><filter id="ac" filterUnits="objectBoundingBox" x="-.06" y="-.02" width="1.13" height="1.1"><feOffset result="offOut" in="SourceAlpha" dy="6"/><feGaussianBlur result="blurOut" in="offOut" stdDeviation="5"/><feColorMatrix result="colorOut" in="blurOut" values="0 0 0 0 0 0 0 0 0 0 0 0 0 0 0 0 0 0 0.16862745098039217 0"/><feBlend in="SourceGraphic" in2="colorOut"/></filter><g id="ai"><use transform="matrix(0.07407407407407408,0,0,0.07407407407407408,0,0)" xlink:href="#bR"/><use transform="matrix(0.07407407407407408,0,0,0.07407407407407408,16.222222222222225,0)" xlink:href="#bL"/></g><path fill="#3d4752" d="M101-251c82-7 93 87 43 132L82-64C71-53 59-42 53-27h129V0H18c2-99 128-94 128-182 0-28-16-43-45-43s-46 15-49 41l-32-3c6-41 34-60 81-64" id="ci"/><g id="aj"><use transform="matrix(0.07407407407407408,0,0,0.07407407407407408,0,0)" xlink:href="#bS"/><use transform="matrix(0.07407407407407408,0,0,0.07407407407407408,8.814814814814817,0)" xlink:href="#ch"/><use transform="matrix(0.07407407407407408,0,0,0.07407407407407408,23.629629629629633,0)" xlink:href="#bq"/><use transform="matrix(0.07407407407407408,0,0,0.07407407407407408,42.814814814814824,0)" xlink:href="#ci"/><use transform="matrix(0.07407407407407408,0,0,0.07407407407407408,57.62962962962964,0)" xlink:href="#bO"/><use transform="matrix(0.07407407407407408,0,0,0.07407407407407408,82.74074074074076,0)" xlink:href="#bW"/></g><filter id="ah" filterUnits="objectBoundingBox" x="-.06" y="-.04" width="1.13" height="1.2"><feOffset result="offOut" in="SourceAlpha" dy="6"/><feGaussianBlur result="blurOut" in="offOut" stdDeviation="5"/><feColorMatrix result="colorOut" in="blurOut" values="0 0 0 0 0 0 0 0 0 0 0 0 0 0 0 0 0 0 0.16862745098039217 0"/><feBlend in="SourceGraphic" in2="colorOut"/></filter><g id="ak"><use transform="matrix(0.06172839506172839,0,0,0.06172839506172839,0,0)" xlink:href="#bx"/><use transform="matrix(0.06172839506172839,0,0,0.06172839506172839,6.172839506172839,0)" xlink:href="#bC"/><use transform="matrix(0.06172839506172839,0,0,0.06172839506172839,18.51851851851852,0)" xlink:href="#bK"/><use transform="matrix(0.06172839506172839,0,0,0.06172839506172839,30.864197530864196,0)" xlink:href="#bF"/></g><filter id="al" filterUnits="objectBoundingBox" x="-.23" y="-.05" width="1.47" height="1.27"><feOffset result="offOut" in="SourceAlpha" dy="6"/><feGaussianBlur result="blurOut" in="offOut" stdDeviation="5"/><feColorMatrix result="colorOut" in="blurOut" values="0 0 0 0 0 0 0 0 0 0 0 0 0 0 0 0 0 0 0.16862745098039217 0"/><feBlend in="SourceGraphic" in2="colorOut"/></filter><g id="an"><use transform="matrix(0.07407407407407408,0,0,0.07407407407407408,0,0)" xlink:href="#bE"/><use transform="matrix(0.07407407407407408,0,0,0.07407407407407408,19.185185185185187,0)" xlink:href="#bA"/><use transform="matrix(0.07407407407407408,0,0,0.07407407407407408,34,0)" xlink:href="#bH"/><use transform="matrix(0.07407407407407408,0,0,0.07407407407407408,47.33333333333334,0)" xlink:href="#bu"/><use transform="matrix(0.07407407407407408,0,0,0.07407407407407408,62.14814814814816,0)" xlink:href="#bD"/><use transform="matrix(0.07407407407407408,0,0,0.07407407407407408,76.96296296296296,0)" xlink:href="#bA"/></g><g id="ao"><use transform="matrix(0.07407407407407408,0,0,0.07407407407407408,0,0)" xlink:href="#ce"/><use transform="matrix(0.07407407407407408,0,0,0.07407407407407408,19.185185185185187,0)" xlink:href="#bB"/><use transform="matrix(0.07407407407407408,0,0,0.07407407407407408,34,0)" xlink:href="#bw"/><use transform="matrix(0.07407407407407408,0,0,0.07407407407407408,39.851851851851855,0)" xlink:href="#bx"/></g><g id="ap"><use transform="matrix(0.07407407407407408,0,0,0.07407407407407408,0,0)" xlink:href="#bC"/><use transform="matrix(0.07407407407407408,0,0,0.07407407407407408,14.814814814814817,0)" xlink:href="#bB"/><use transform="matrix(0.07407407407407408,0,0,0.07407407407407408,29.629629629629633,0)" xlink:href="#bD"/></g><g id="aq"><use transform="matrix(0.07407407407407408,0,0,0.07407407407407408,0,0)" xlink:href="#bq"/><use transform="matrix(0.07407407407407408,0,0,0.07407407407407408,19.185185185185187,0)" xlink:href="#bA"/><use transform="matrix(0.07407407407407408,0,0,0.07407407407407408,34,0)" xlink:href="#bB"/><use transform="matrix(0.07407407407407408,0,0,0.07407407407407408,48.81481481481481,0)" xlink:href="#bC"/><use transform="matrix(0.07407407407407408,0,0,0.07407407407407408,63.629629629629626,0)" xlink:href="#bv"/><use transform="matrix(0.07407407407407408,0,0,0.07407407407407408,85.77777777777779,0)" xlink:href="#bA"/></g><g id="ar"><use transform="matrix(0.07407407407407408,0,0,0.07407407407407408,0,0)" xlink:href="#cd"/><use transform="matrix(0.07407407407407408,0,0,0.07407407407407408,14.814814814814817,0)" xlink:href="#bu"/><use transform="matrix(0.07407407407407408,0,0,0.07407407407407408,29.629629629629633,0)" xlink:href="#bK"/><use transform="matrix(0.07407407407407408,0,0,0.07407407407407408,44.44444444444445,0)" xlink:href="#bw"/><use transform="matrix(0.07407407407407408,0,0,0.07407407407407408,50.296296296296305,0)" xlink:href="#bH"/></g><filter id="am" filterUnits="objectBoundingBox" x="-.07" y="-.01" width="1.14" height="1.07"><feOffset result="offOut" in="SourceAlpha" dy="6"/><feGaussianBlur result="blurOut" in="offOut" stdDeviation="5"/><feColorMatrix result="colorOut" in="blurOut" values="0 0 0 0 0 0 0 0 0 0 0 0 0 0 0 0 0 0 0.16862745098039217 0"/><feBlend in="SourceGraphic" in2="colorOut"/></filter><g id="at"><use transform="matrix(0.07407407407407408,0,0,0.07407407407407408,0,0)" xlink:href="#bq"/><use transform="matrix(0.07407407407407408,0,0,0.07407407407407408,19.185185185185187,0)" xlink:href="#bA"/><use transform="matrix(0.07407407407407408,0,0,0.07407407407407408,34,0)" xlink:href="#bB"/><use transform="matrix(0.07407407407407408,0,0,0.07407407407407408,48.81481481481481,0)" xlink:href="#bC"/><use transform="matrix(0.07407407407407408,0,0,0.07407407407407408,63.629629629629626,0)" xlink:href="#bv"/><use transform="matrix(0.07407407407407408,0,0,0.07407407407407408,85.77777777777779,0)" xlink:href="#bA"/></g><g id="au"><use transform="matrix(0.07407407407407408,0,0,0.07407407407407408,0,0)" xlink:href="#cd"/><use transform="matrix(0.07407407407407408,0,0,0.07407407407407408,14.814814814814817,0)" xlink:href="#bu"/><use transform="matrix(0.07407407407407408,0,0,0.07407407407407408,29.629629629629633,0)" xlink:href="#bK"/><use transform="matrix(0.07407407407407408,0,0,0.07407407407407408,44.44444444444445,0)" xlink:href="#bw"/><use transform="matrix(0.07407407407407408,0,0,0.07407407407407408,50.296296296296305,0)" xlink:href="#bH"/></g><g id="av"><use transform="matrix(0.07407407407407408,0,0,0.07407407407407408,0,0)" xlink:href="#bC"/><use transform="matrix(0.07407407407407408,0,0,0.07407407407407408,14.814814814814817,0)" xlink:href="#bB"/><use transform="matrix(0.07407407407407408,0,0,0.07407407407407408,29.629629629629633,0)" xlink:href="#bD"/></g><g id="aw"><use transform="matrix(0.07407407407407408,0,0,0.07407407407407408,0,0)" xlink:href="#bE"/><use transform="matrix(0.07407407407407408,0,0,0.07407407407407408,19.185185185185187,0)" xlink:href="#bw"/><use transform="matrix(0.07407407407407408,0,0,0.07407407407407408,25.037037037037035,0)" xlink:href="#bF"/><use transform="matrix(0.07407407407407408,0,0,0.07407407407407408,38.370370370370374,0)" xlink:href="#bG"/><use transform="matrix(0.07407407407407408,0,0,0.07407407407407408,53.18518518518519,0)" xlink:href="#bC"/><use transform="matrix(0.07407407407407408,0,0,0.07407407407407408,68,0)" xlink:href="#bx"/><use transform="matrix(0.07407407407407408,0,0,0.07407407407407408,75.4074074074074,0)" xlink:href="#bH"/><use transform="matrix(0.07407407407407408,0,0,0.07407407407407408,88.74074074074073,0)" xlink:href="#bI"/></g><filter id="as" filterUnits="objectBoundingBox" x="-.07" y="-.02" width="1.14" height="1.09"><feOffset result="offOut" in="SourceAlpha" dy="6"/><feGaussianBlur result="blurOut" in="offOut" stdDeviation="5"/><feColorMatrix result="colorOut" in="blurOut" values="0 0 0 0 0 0 0 0 0 0 0 0 0 0 0 0 0 0 0.16862745098039217 0"/><feBlend in="SourceGraphic" in2="colorOut"/></filter><g id="ax"><use transform="matrix(0.08641975308641976,0,0,0.08641975308641976,0,0)" xlink:href="#bZ"/><use transform="matrix(0.08641975308641976,0,0,0.08641975308641976,25.83950617283951,0)" xlink:href="#bA"/><use transform="matrix(0.08641975308641976,0,0,0.08641975308641976,43.12345679012346,0)" xlink:href="#bv"/><use transform="matrix(0.08641975308641976,0,0,0.08641975308641976,68.96296296296298,0)" xlink:href="#bu"/><use transform="matrix(0.08641975308641976,0,0,0.08641975308641976,86.24691358024693,0)" xlink:href="#bM"/><use transform="matrix(0.08641975308641976,0,0,0.08641975308641976,96.53086419753087,0)" xlink:href="#bU"/></g><g id="az"><use transform="matrix(0.08641975308641976,0,0,0.08641975308641976,0,0)" xlink:href="#bO"/><use transform="matrix(0.08641975308641976,0,0,0.08641975308641976,28.69135802469136,0)" xlink:href="#bM"/><use transform="matrix(0.08641975308641976,0,0,0.08641975308641976,38.97530864197531,0)" xlink:href="#bw"/><use transform="matrix(0.08641975308641976,0,0,0.08641975308641976,45.80246913580246,0)" xlink:href="#bx"/><use transform="matrix(0.08641975308641976,0,0,0.08641975308641976,54.44444444444444,0)" xlink:href="#bA"/><use transform="matrix(0.08641975308641976,0,0,0.08641975308641976,71.72839506172839,0)" xlink:href="#bP"/><use transform="matrix(0.08641975308641976,0,0,0.08641975308641976,89.01234567901234,0)" xlink:href="#bC"/><use transform="matrix(0.08641975308641976,0,0,0.08641975308641976,106.29629629629629,0)" xlink:href="#bH"/><use transform="matrix(0.08641975308641976,0,0,0.08641975308641976,121.85185185185185,0)" xlink:href="#bJ"/></g><filter id="ay" filterUnits="objectBoundingBox" x="-.06" y="-.07" width="1.12" height="1.33"><feOffset result="offOut" in="SourceAlpha" dy="6"/><feGaussianBlur result="blurOut" in="offOut" stdDeviation="5"/><feColorMatrix result="colorOut" in="blurOut" values="0 0 0 0 0 0 0 0 0 0 0 0 0 0 0 0 0 0 0.16862745098039217 0"/><feBlend in="SourceGraphic" in2="colorOut"/></filter><path fill="#3d4752" d="M30 0v-248h187v28H63v79h144v27H63v87h162V0H30" id="cj"/><path fill="#3d4752" d="M141 0L90-78 38 0H4l68-98-65-92h35l48 74 47-74h35l-64 92 68 98h-35" id="ck"/><g id="aA"><use transform="matrix(0.08641975308641976,0,0,0.08641975308641976,0,0)" xlink:href="#cj"/><use transform="matrix(0.08641975308641976,0,0,0.08641975308641976,20.740740740740744,0)" xlink:href="#ck"/><use transform="matrix(0.08641975308641976,0,0,0.08641975308641976,36.296296296296305,0)" xlink:href="#bA"/><use transform="matrix(0.08641975308641976,0,0,0.08641975308641976,53.580246913580254,0)" xlink:href="#bH"/><use transform="matrix(0.08641975308641976,0,0,0.08641975308641976,69.13580246913581,0)" xlink:href="#bN"/><use transform="matrix(0.08641975308641976,0,0,0.08641975308641976,86.41975308641976,0)" xlink:href="#bx"/><use transform="matrix(0.08641975308641976,0,0,0.08641975308641976,95.06172839506173,0)" xlink:href="#bA"/></g><filter id="aB" filterUnits="objectBoundingBox" x="-.04" y="-.02" width="1.08" height="1.11"><feOffset result="offOut" in="SourceAlpha" dy="6"/><feGaussianBlur result="blurOut" in="offOut" stdDeviation="5"/><feColorMatrix result="colorOut" in="blurOut" values="0 0 0 0 0 0 0 0 0 0 0 0 0 0 0 0 0 0 0.16862745098039217 0"/><feBlend in="SourceGraphic" in2="colorOut"/></filter><filter id="aC" filterUnits="objectBoundingBox" x="-.1" y="-.1" width="1.2" height="1.5"><feOffset result="offOut" in="SourceAlpha" dy="6"/><feGaussianBlur result="blurOut" in="offOut" stdDeviation="5"/><feColorMatrix result="colorOut" in="blurOut" values="0 0 0 0 0 0 0 0 0 0 0 0 0 0 0 0 0 0 0.16862745098039217 0"/><feBlend in="SourceGraphic" in2="colorOut"/></filter><filter id="aD" filterUnits="objectBoundingBox" x="-.1" y="-.1" width="1.2" height="1.5"><feOffset result="offOut" in="SourceAlpha" dy="6"/><feGaussianBlur result="blurOut" in="offOut" stdDeviation="5"/><feColorMatrix result="colorOut" in="blurOut" values="0 0 0 0 0 0 0 0 0 0 0 0 0 0 0 0 0 0 0.16862745098039217 0"/><feBlend in="SourceGraphic" in2="colorOut"/></filter><filter id="aE" filterUnits="objectBoundingBox" x="-.06" y="-.1" width="1.13" height="1.5"><feOffset result="offOut" in="SourceAlpha" dy="6"/><feGaussianBlur result="blurOut" in="offOut" stdDeviation="5"/><feColorMatrix result="colorOut" in="blurOut" values="0 0 0 0 0 0 0 0 0 0 0 0 0 0 0 0 0 0 0.16862745098039217 0"/><feBlend in="SourceGraphic" in2="colorOut"/></filter><filter id="aF" filterUnits="objectBoundingBox" x="-.04" y="-.02" width="1.08" height="1.08"><feOffset result="offOut" in="SourceAlpha" dy="6"/><feGaussianBlur result="blurOut" in="offOut" stdDeviation="5"/><feColorMatrix result="colorOut" in="blurOut" values="0 0 0 0 0 0 0 0 0 0 0 0 0 0 0 0 0 0 0.16862745098039217 0"/><feBlend in="SourceGraphic" in2="colorOut"/></filter><filter id="aG" filterUnits="objectBoundingBox" x="-.04" y="-.05" width="1.08" height="1.25"><feOffset result="offOut" in="SourceAlpha" dy="6"/><feGaussianBlur result="blurOut" in="offOut" stdDeviation="5"/><feColorMatrix result="colorOut" in="blurOut" values="0 0 0 0 0 0 0 0 0 0 0 0 0 0 0 0 0 0 0.16862745098039217 0"/><feBlend in="SourceGraphic" in2="colorOut"/></filter><filter id="aH" filterUnits="objectBoundingBox" x="-.03" y="-.03" width="1.05" height="1.14"><feOffset result="offOut" in="SourceAlpha" dy="6"/><feGaussianBlur result="blurOut" in="offOut" stdDeviation="5"/><feColorMatrix result="colorOut" in="blurOut" values="0 0 0 0 0 0 0 0 0 0 0 0 0 0 0 0 0 0 0.16862745098039217 0"/><feBlend in="SourceGraphic" in2="colorOut"/></filter><filter id="aI" filterUnits="objectBoundingBox" x="-.39" y="-.2" width="1.79" height="2"><feOffset result="offOut" in="SourceAlpha" dy="6"/><feGaussianBlur result="blurOut" in="offOut" stdDeviation="5"/><feColorMatrix result="colorOut" in="blurOut" values="0 0 0 0 0 0 0 0 0 0 0 0 0 0 0 0 0 0 0.16862745098039217 0"/><feBlend in="SourceGraphic" in2="colorOut"/></filter><g id="aK"><use transform="matrix(0.07407407407407408,0,0,0.07407407407407408,0,0)" xlink:href="#bE"/><use transform="matrix(0.07407407407407408,0,0,0.07407407407407408,19.185185185185187,0)" xlink:href="#bz"/></g><path fill="#3d4752" d="M185-189c-5-48-123-54-124 2 14 75 158 14 163 119 3 78-121 87-175 55-17-10-28-26-33-46l33-7c5 56 141 63 141-1 0-78-155-14-162-118-5-82 145-84 179-34 5 7 8 16 11 25" id="cl"/><g id="aL"><use transform="matrix(0.07407407407407408,0,0,0.07407407407407408,0,0)" xlink:href="#cl"/><use transform="matrix(0.07407407407407408,0,0,0.07407407407407408,17.77777777777778,0)" xlink:href="#bI"/><use transform="matrix(0.07407407407407408,0,0,0.07407407407407408,32.592592592592595,0)" xlink:href="#bw"/><use transform="matrix(0.07407407407407408,0,0,0.07407407407407408,38.44444444444445,0)" xlink:href="#bv"/></g><filter id="aJ" filterUnits="objectBoundingBox" x="-.07" y="-.12" width="1.14" height="1.62"><feOffset result="offOut" in="SourceAlpha" dy="6"/><feGaussianBlur result="blurOut" in="offOut" stdDeviation="5"/><feColorMatrix result="colorOut" in="blurOut" values="0 0 0 0 0 0 0 0 0 0 0 0 0 0 0 0 0 0 0.16862745098039217 0"/><feBlend in="SourceGraphic" in2="colorOut"/></filter><g id="aN"><use transform="matrix(0.07407407407407408,0,0,0.07407407407407408,0,0)" xlink:href="#cl"/><use transform="matrix(0.07407407407407408,0,0,0.07407407407407408,17.77777777777778,0)" xlink:href="#bE"/><use transform="matrix(0.07407407407407408,0,0,0.07407407407407408,36.96296296296296,0)" xlink:href="#cb"/></g><filter id="aM" filterUnits="objectBoundingBox" x="-.14" y="-.12" width="1.28" height="1.62"><feOffset result="offOut" in="SourceAlpha" dy="6"/><feGaussianBlur result="blurOut" in="offOut" stdDeviation="5"/><feColorMatrix result="colorOut" in="blurOut" values="0 0 0 0 0 0 0 0 0 0 0 0 0 0 0 0 0 0 0.16862745098039217 0"/><feBlend in="SourceGraphic" in2="colorOut"/></filter><g id="aO"><use transform="matrix(0.07407407407407408,0,0,0.07407407407407408,0,0)" xlink:href="#cd"/><use transform="matrix(0.07407407407407408,0,0,0.07407407407407408,14.814814814814817,0)" xlink:href="#cc"/><use transform="matrix(0.07407407407407408,0,0,0.07407407407407408,32.592592592592595,0)" xlink:href="#cb"/></g><filter id="aP" filterUnits="objectBoundingBox" x="-.06" y="-.04" width="1.12" height="1.18"><feOffset result="offOut" in="SourceAlpha" dy="6"/><feGaussianBlur result="blurOut" in="offOut" stdDeviation="5"/><feColorMatrix result="colorOut" in="blurOut" values="0 0 0 0 0 0 0 0 0 0 0 0 0 0 0 0 0 0 0.16862745098039217 0"/><feBlend in="SourceGraphic" in2="colorOut"/></filter><g id="aQ"><use transform="matrix(0.07407407407407408,0,0,0.07407407407407408,0,0)" xlink:href="#cl"/><use transform="matrix(0.07407407407407408,0,0,0.07407407407407408,17.77777777777778,0)" xlink:href="#cc"/><use transform="matrix(0.07407407407407408,0,0,0.07407407407407408,35.55555555555556,0)" xlink:href="#cb"/></g><g id="aR"><use transform="matrix(0.07407407407407408,0,0,0.07407407407407408,0,0)" xlink:href="#bE"/><use transform="matrix(0.07407407407407408,0,0,0.07407407407407408,19.185185185185187,0)" xlink:href="#bz"/></g><path fill="#3d4752" d="M0 4l72-265h28L28 4H0" id="cm"/><g id="aT"><use transform="matrix(0.07407407407407408,0,0,0.07407407407407408,0,0)" xlink:href="#bs"/><use transform="matrix(0.07407407407407408,0,0,0.07407407407407408,17.77777777777778,0)" xlink:href="#bq"/><use transform="matrix(0.07407407407407408,0,0,0.07407407407407408,36.96296296296296,0)" xlink:href="#cm"/><use transform="matrix(0.07407407407407408,0,0,0.07407407407407408,44.37037037037037,0)" xlink:href="#cc"/><use transform="matrix(0.07407407407407408,0,0,0.07407407407407408,62.148148148148145,0)" xlink:href="#cd"/><use transform="matrix(0.07407407407407408,0,0,0.07407407407407408,76.96296296296296,0)" xlink:href="#ce"/></g><filter id="aS" filterUnits="objectBoundingBox" x="-.08" y="-.13" width="1.17" height="1.66"><feOffset result="offOut" in="SourceAlpha" dy="6"/><feGaussianBlur result="blurOut" in="offOut" stdDeviation="5"/><feColorMatrix result="colorOut" in="blurOut" values="0 0 0 0 0 0 0 0 0 0 0 0 0 0 0 0 0 0 0.16862745098039217 0"/><feBlend in="SourceGraphic" in2="colorOut"/></filter><g id="aV"><use transform="matrix(0.07407407407407408,0,0,0.07407407407407408,0,0)" xlink:href="#bZ"/><use transform="matrix(0.07407407407407408,0,0,0.07407407407407408,22.148148148148152,0)" xlink:href="#bA"/><use transform="matrix(0.07407407407407408,0,0,0.07407407407407408,36.96296296296297,0)" xlink:href="#bv"/><use transform="matrix(0.07407407407407408,0,0,0.07407407407407408,59.11111111111112,0)" xlink:href="#bt"/><use transform="matrix(0.07407407407407408,0,0,0.07407407407407408,78.2962962962963,0)" xlink:href="#bC"/><use transform="matrix(0.07407407407407408,0,0,0.07407407407407408,93.1111111111111,0)" xlink:href="#bV"/><use transform="matrix(0.07407407407407408,0,0,0.07407407407407408,98.96296296296296,0)" xlink:href="#bH"/></g><filter id="aU" filterUnits="objectBoundingBox" x="-.08" y="-.11" width="1.16" height="1.56"><feOffset result="offOut" in="SourceAlpha" dy="6"/><feGaussianBlur result="blurOut" in="offOut" stdDeviation="5"/><feColorMatrix result="colorOut" in="blurOut" values="0 0 0 0 0 0 0 0 0 0 0 0 0 0 0 0 0 0 0.16862745098039217 0"/><feBlend in="SourceGraphic" in2="colorOut"/></filter><path fill="#3d4752" d="M108 0H70L1-190h34L89-25l56-165h34" id="cn"/><g id="aX"><use transform="matrix(0.07407407407407408,0,0,0.07407407407407408,0,0)" xlink:href="#bw"/><use transform="matrix(0.07407407407407408,0,0,0.07407407407407408,5.851851851851853,0)" xlink:href="#bE"/><use transform="matrix(0.07407407407407408,0,0,0.07407407407407408,25.037037037037035,0)" xlink:href="#bw"/><use transform="matrix(0.07407407407407408,0,0,0.07407407407407408,30.888888888888893,0)" xlink:href="#cn"/></g><filter id="aW" filterUnits="objectBoundingBox" x="-.13" y="-.11" width="1.26" height="1.56"><feOffset result="offOut" in="SourceAlpha" dy="6"/><feGaussianBlur result="blurOut" in="offOut" stdDeviation="5"/><feColorMatrix result="colorOut" in="blurOut" values="0 0 0 0 0 0 0 0 0 0 0 0 0 0 0 0 0 0 0.16862745098039217 0"/><feBlend in="SourceGraphic" in2="colorOut"/></filter><g id="aY"><use transform="matrix(0.07407407407407408,0,0,0.07407407407407408,0,0)" xlink:href="#bw"/><use transform="matrix(0.07407407407407408,0,0,0.07407407407407408,5.851851851851853,0)" xlink:href="#bZ"/><use transform="matrix(0.07407407407407408,0,0,0.07407407407407408,28.000000000000007,0)" xlink:href="#bN"/><use transform="matrix(0.07407407407407408,0,0,0.07407407407407408,42.814814814814824,0)" xlink:href="#bV"/></g><g id="ba"><use transform="matrix(0.07407407407407408,0,0,0.07407407407407408,0,0)" xlink:href="#bR"/><use transform="matrix(0.07407407407407408,0,0,0.07407407407407408,16.222222222222225,0)" xlink:href="#bL"/><use transform="matrix(0.07407407407407408,0,0,0.07407407407407408,34,0)" xlink:href="#ci"/><use transform="matrix(0.07407407407407408,0,0,0.07407407407407408,48.81481481481481,0)" xlink:href="#by"/><use transform="matrix(0.07407407407407408,0,0,0.07407407407407408,56.22222222222223,0)" xlink:href="#bB"/><use transform="matrix(0.07407407407407408,0,0,0.07407407407407408,71.03703703703704,0)" xlink:href="#bx"/></g><filter id="aZ" filterUnits="objectBoundingBox" x="-.12" y="-.11" width="1.24" height="1.54"><feOffset result="offOut" in="SourceAlpha" dy="6"/><feGaussianBlur result="blurOut" in="offOut" stdDeviation="5"/><feColorMatrix result="colorOut" in="blurOut" values="0 0 0 0 0 0 0 0 0 0 0 0 0 0 0 0 0 0 0.16862745098039217 0"/><feBlend in="SourceGraphic" in2="colorOut"/></filter><g id="bc"><use transform="matrix(0.07407407407407408,0,0,0.07407407407407408,0,0)" xlink:href="#bR"/><use transform="matrix(0.07407407407407408,0,0,0.07407407407407408,16.222222222222225,0)" xlink:href="#bL"/><use transform="matrix(0.07407407407407408,0,0,0.07407407407407408,34,0)" xlink:href="#bE"/><use transform="matrix(0.07407407407407408,0,0,0.07407407407407408,53.18518518518519,0)" xlink:href="#bw"/><use transform="matrix(0.07407407407407408,0,0,0.07407407407407408,59.037037037037045,0)" xlink:href="#cn"/></g><filter id="bb" filterUnits="objectBoundingBox" x="-.14" y="-.1" width="1.27" height="1.5"><feOffset result="offOut" in="SourceAlpha" dy="6"/><feGaussianBlur result="blurOut" in="offOut" stdDeviation="5"/><feColorMatrix result="colorOut" in="blurOut" values="0 0 0 0 0 0 0 0 0 0 0 0 0 0 0 0 0 0 0.16862745098039217 0"/><feBlend in="SourceGraphic" in2="colorOut"/></filter><g id="be"><use transform="matrix(0.07407407407407408,0,0,0.07407407407407408,0,0)" xlink:href="#bR"/><use transform="matrix(0.07407407407407408,0,0,0.07407407407407408,16.222222222222225,0)" xlink:href="#bZ"/><use transform="matrix(0.07407407407407408,0,0,0.07407407407407408,38.37037037037038,0)" xlink:href="#cc"/></g><filter id="bd" filterUnits="objectBoundingBox" x="-.14" y="-.11" width="1.27" height="1.54"><feOffset result="offOut" in="SourceAlpha" dy="6"/><feGaussianBlur result="blurOut" in="offOut" stdDeviation="5"/><feColorMatrix result="colorOut" in="blurOut" values="0 0 0 0 0 0 0 0 0 0 0 0 0 0 0 0 0 0 0.16862745098039217 0"/><feBlend in="SourceGraphic" in2="colorOut"/></filter><g id="bg"><use transform="matrix(0.07407407407407408,0,0,0.07407407407407408,0,0)" xlink:href="#bX"/><use transform="matrix(0.07407407407407408,0,0,0.07407407407407408,13.259259259259261,0)" xlink:href="#bu"/></g><g id="bh"><use transform="matrix(0.07407407407407408,0,0,0.07407407407407408,0,0)" xlink:href="#by"/><use transform="matrix(0.07407407407407408,0,0,0.07407407407407408,7.407407407407408,0)" xlink:href="#bB"/><use transform="matrix(0.07407407407407408,0,0,0.07407407407407408,22.222222222222225,0)" xlink:href="#bx"/><use transform="matrix(0.07407407407407408,0,0,0.07407407407407408,29.629629629629633,0)" xlink:href="#cm"/><use transform="matrix(0.07407407407407408,0,0,0.07407407407407408,37.03703703703704,0)" xlink:href="#bR"/><use transform="matrix(0.07407407407407408,0,0,0.07407407407407408,53.25925925925927,0)" xlink:href="#bL"/></g><g id="bi"><use transform="matrix(0.07407407407407408,0,0,0.07407407407407408,0,0)" xlink:href="#bq"/><use transform="matrix(0.07407407407407408,0,0,0.07407407407407408,19.185185185185187,0)" xlink:href="#bR"/></g><filter id="bf" filterUnits="objectBoundingBox" x="-.08" y="-.06" width="1.17" height="1.29"><feOffset result="offOut" in="SourceAlpha" dy="6"/><feGaussianBlur result="blurOut" in="offOut" stdDeviation="5"/><feColorMatrix result="colorOut" in="blurOut" values="0 0 0 0 0 0 0 0 0 0 0 0 0 0 0 0 0 0 0.16862745098039217 0"/><feBlend in="SourceGraphic" in2="colorOut"/></filter><filter id="bj" filterUnits="objectBoundingBox" x="-.09" y="-.06" width="1.18" height="1.29"><feOffset result="offOut" in="SourceAlpha" dy="6"/><feGaussianBlur result="blurOut" in="offOut" stdDeviation="5"/><feColorMatrix result="colorOut" in="blurOut" values="0 0 0 0 0 0 0 0 0 0 0 0 0 0 0 0 0 0 0.16862745098039217 0"/><feBlend in="SourceGraphic" in2="colorOut"/></filter><g id="bk"><use transform="matrix(0.07407407407407408,0,0,0.07407407407407408,0,0)" xlink:href="#by"/><use transform="matrix(0.07407407407407408,0,0,0.07407407407407408,7.407407407407408,0)" xlink:href="#bB"/><use transform="matrix(0.07407407407407408,0,0,0.07407407407407408,22.222222222222225,0)" xlink:href="#bx"/><use transform="matrix(0.07407407407407408,0,0,0.07407407407407408,29.629629629629633,0)" xlink:href="#ci"/><use transform="matrix(0.07407407407407408,0,0,0.07407407407407408,44.44444444444445,0)" xlink:href="#bR"/><use transform="matrix(0.07407407407407408,0,0,0.07407407407407408,60.66666666666667,0)" xlink:href="#bL"/></g><g id="bl"><use transform="matrix(0.07407407407407408,0,0,0.07407407407407408,0,0)" xlink:href="#cc"/><use transform="matrix(0.07407407407407408,0,0,0.07407407407407408,17.77777777777778,0)" xlink:href="#cd"/><use transform="matrix(0.07407407407407408,0,0,0.07407407407407408,32.592592592592595,0)" xlink:href="#ce"/></g><g id="bn"><use transform="matrix(0.07407407407407408,0,0,0.07407407407407408,0,0)" xlink:href="#by"/><use transform="matrix(0.07407407407407408,0,0,0.07407407407407408,7.407407407407408,0)" xlink:href="#bB"/><use transform="matrix(0.07407407407407408,0,0,0.07407407407407408,22.222222222222225,0)" xlink:href="#bx"/></g><filter id="bm" filterUnits="objectBoundingBox" x="-.1" y="-.06" width="1.21" height="1.29"><feOffset result="offOut" in="SourceAlpha" dy="6"/><feGaussianBlur result="blurOut" in="offOut" stdDeviation="5"/><feColorMatrix result="colorOut" in="blurOut" values="0 0 0 0 0 0 0 0 0 0 0 0 0 0 0 0 0 0 0.16862745098039217 0"/><feBlend in="SourceGraphic" in2="colorOut"/></filter><g id="bo"><use transform="matrix(0.07407407407407408,0,0,0.07407407407407408,0,0)" xlink:href="#ck"/><use transform="matrix(0.07407407407407408,0,0,0.07407407407407408,13.333333333333336,0)" xlink:href="#ci"/></g><g id="bp"><use transform="matrix(0.07407407407407408,0,0,0.07407407407407408,0,0)" xlink:href="#ck"/><use transform="matrix(0.07407407407407408,0,0,0.07407407407407408,13.333333333333336,0)" xlink:href="#ch"/></g></defs></g></svg>